<svg width="44" height="49" viewBox="0 0 44 49" fill="none" xmlns="http://www.w3.org/2000/svg">
<path d="M25.4178 8.21708V6.02585H27.4776C27.8795 6.02585 28.2311 5.67724 28.2311 5.27884V1.69318C28.2311 1.29477 27.8795 0.946167 27.4776 0.946167H18.686C18.2841 0.946167 17.9324 1.29477 17.9324 1.69318V5.27884C17.9324 5.67724 18.2841 6.02585 18.686 6.02585H20.7457V8.21708C15.8727 8.76489 11.5522 11.0059 8.28679 14.2928L7.43274 13.4462L8.8394 12.0517C9.14083 11.7529 9.14083 11.3047 8.8394 11.0059L5.92561 8.11748C5.62419 7.81868 5.17205 7.81868 4.87062 8.11748L0.901851 11.9521C0.600425 12.2509 0.600425 12.6992 0.901851 12.998L3.81563 15.8864C3.96635 16.0358 4.1673 16.0856 4.36825 16.0856C4.5692 16.0856 4.77015 16.0358 4.92086 15.8864L6.37775 14.4422L7.33227 15.3884C4.31801 18.9243 2.50946 23.5059 2.50946 28.486C2.50946 39.741 11.7532 48.9043 23.1069 48.9043C34.4606 48.9043 43.7043 39.741 43.7043 28.486C43.6541 18.0278 35.6663 9.3625 25.4178 8.21708ZM4.36825 14.3426L2.50946 12.4502L5.32276 9.66131L7.18156 11.5039L6.07633 12.5996C5.92562 12.749 5.72466 12.9482 5.52371 13.1474L4.36825 14.3426ZM21.4993 4.53182H19.4395V2.44019H26.724V4.53182H24.6643C24.2624 4.53182 23.9107 4.88043 23.9107 5.27884V8.11748C23.6595 8.11748 23.3581 8.11748 23.1069 8.11748C22.8557 8.11748 22.5543 8.11748 22.3031 8.11748V5.27884C22.2529 4.83063 21.9012 4.53182 21.4993 4.53182ZM23.0567 47.4103C12.557 47.4103 3.96635 38.9442 3.96635 28.486C3.96635 18.0278 12.5067 9.56171 23.0567 9.56171C23.4586 9.56171 23.8605 9.56171 24.2624 9.61151C24.4633 9.61151 24.6643 9.66131 24.8652 9.66131C34.5611 10.5577 42.147 18.6753 42.147 28.486C42.147 38.9442 33.6066 47.4103 23.0567 47.4103Z" fill="#3F3C20"/>
<path d="M33.9085 16.235C33.8583 16.1852 33.808 16.1354 33.7578 16.0856C30.8942 13.6454 27.1766 12.2012 23.1074 12.2012C14.0144 12.2012 6.67969 19.5219 6.67969 28.486C6.67969 37.4502 14.0144 44.8207 23.0572 44.8207C32.0999 44.8207 39.4849 37.5 39.4849 28.5358C39.5351 23.6056 37.3247 19.2231 33.9085 16.235ZM23.0572 43.3267C14.8182 43.3267 8.13658 36.7032 8.13658 28.5358C8.13658 20.3685 14.8182 13.745 23.0572 13.745C26.5236 13.745 29.6885 14.9402 32.2004 16.8824L24.0619 26.1454C23.7605 26.0458 23.4088 25.9462 23.1074 25.9462C21.7007 25.9462 20.5453 27.0916 20.5453 28.486C20.5453 29.8805 21.7007 31.0259 23.1074 31.0259C24.5141 31.0259 25.6193 29.8805 25.6193 28.486C25.6193 27.988 25.4686 27.49 25.2174 27.0916L33.4061 17.7789C36.2697 20.4681 38.028 24.253 38.028 28.486C38.028 36.6534 31.2961 43.3267 23.0572 43.3267ZM24.1122 28.486C24.1122 29.0836 23.66 29.5318 23.0572 29.5318C22.4543 29.5318 22.0022 29.0836 22.0022 28.486C22.0022 27.9382 22.4543 27.4402 23.0572 27.4402C23.66 27.4402 24.1122 27.9382 24.1122 28.486Z" fill="#3F3C20"/>
</svg>
