<svg width="85" height="85" viewBox="0 0 85 85" fill="none" xmlns="http://www.w3.org/2000/svg">
<circle cx="42.5" cy="42.5" r="42.5" fill="#E8DAC4"/>
<path d="M40.705 17.2C38.785 17.2 37.2917 17.7547 36.225 18.864C35.1583 19.9733 34.625 21.6587 34.625 23.92C34.625 24.56 34.7317 25.2 34.945 25.84C35.0303 26.1813 35.137 26.5013 35.265 26.8L29.825 28.08C29.697 27.9093 29.5903 27.6747 29.505 27.376C29.2917 26.864 29.185 26.1387 29.185 25.2C29.185 24.0053 29.441 22.8747 29.953 21.808C30.465 20.6987 31.2117 19.7387 32.193 18.928C33.1743 18.1173 34.369 17.4773 35.777 17.008C37.2277 16.496 38.8703 16.24 40.705 16.24C42.625 16.24 44.3317 16.5173 45.825 17.072C47.361 17.584 48.641 18.3093 49.665 19.248C50.689 20.1867 51.4783 21.296 52.033 22.576C52.5877 23.856 52.865 25.264 52.865 26.8C52.865 29.1467 52.353 30.9813 51.329 32.304C50.3477 33.6267 49.2597 34.6507 48.065 35.376C46.657 36.1867 45.057 36.7413 43.265 37.04C45.4837 37.3387 47.4463 38 49.153 39.024C49.8783 39.4507 50.6037 39.984 51.329 40.624C52.0543 41.264 52.6943 42.032 53.249 42.928C53.8037 43.7813 54.2517 44.784 54.593 45.936C54.9343 47.088 55.105 48.3893 55.105 49.84C55.105 51.6747 54.7423 53.4027 54.017 55.024C53.3343 56.6027 52.353 57.9893 51.073 59.184C49.793 60.336 48.2357 61.2533 46.401 61.936C44.609 62.6187 42.6037 62.96 40.385 62.96C38.5503 62.96 36.865 62.6613 35.329 62.064C33.793 61.4667 32.4703 60.656 31.361 59.632C30.2943 58.608 29.441 57.4347 28.801 56.112C28.2037 54.7467 27.905 53.296 27.905 51.76C27.905 48.3893 28.5237 45.9573 29.761 44.464C31.041 42.928 32.5557 42.16 34.305 42.16C34.5183 42.16 34.7317 42.1813 34.945 42.224C35.201 42.2667 35.4357 42.3093 35.649 42.352C35.8623 42.3947 36.0543 42.4373 36.225 42.48L34.945 47.6C31.105 47.6 29.185 49.4133 29.185 53.04C29.185 54.064 29.441 55.1093 29.953 56.176C30.5077 57.2 31.2543 58.1173 32.193 58.928C33.1317 59.7387 34.241 60.4 35.521 60.912C36.801 61.424 38.209 61.68 39.745 61.68C42.6463 61.68 44.9077 60.7627 46.529 58.928C48.193 57.0507 49.025 54.0213 49.025 49.84C49.025 45.5307 48.2143 42.4373 46.593 40.56C44.9717 38.64 42.7957 37.68 40.065 37.68H37.505V36.4H40.065C42.3263 36.4 44.1183 35.6533 45.441 34.16C46.7637 32.624 47.425 30.1707 47.425 26.8C47.425 25.2213 47.233 23.8347 46.849 22.64C46.5077 21.4027 46.017 20.4 45.377 19.632C44.7797 18.8213 44.0757 18.224 43.265 17.84C42.4543 17.4133 41.601 17.2 40.705 17.2Z" fill="#3F3C20"/>
</svg>
