<svg width="85" height="85" viewBox="0 0 85 85" fill="none" xmlns="http://www.w3.org/2000/svg">
<circle cx="42.5" cy="42.5" r="42.5" fill="#E8DAC4"/>
<path d="M39.6125 17.2C38.4178 17.2 37.2658 17.456 36.1565 17.968C35.0472 18.48 34.0445 19.184 33.1485 20.08C32.2952 20.9333 31.6125 21.9147 31.1005 23.024C30.5885 24.1333 30.3325 25.2853 30.3325 26.48C30.3325 27.5893 30.7592 28.5067 31.6125 29.232C32.5085 29.9573 34.0018 30.32 36.0925 30.32L37.3725 35.44C37.2018 35.5253 37.0098 35.5893 36.7965 35.632C36.5832 35.6747 36.3485 35.7173 36.0925 35.76C35.8792 35.76 35.6658 35.76 35.4525 35.76C33.6605 35.76 32.1458 35.056 30.9085 33.648C29.6712 32.1973 29.0525 30.0213 29.0525 27.12C29.0525 25.584 29.3512 24.1547 29.9485 22.832C30.5458 21.4667 31.3565 20.272 32.3805 19.248C33.4045 18.224 34.5778 17.4133 35.9005 16.816C37.2658 16.2187 38.7165 15.92 40.2525 15.92C42.2578 15.92 44.0925 16.2613 45.7565 16.944C47.4632 17.6267 48.9138 18.5653 50.1085 19.76C51.3458 20.912 52.3058 22.2987 52.9885 23.92C53.6712 25.4987 54.0125 27.2053 54.0125 29.04C54.0125 30.7893 53.6498 32.6027 52.9245 34.48C52.1992 36.3147 51.2178 38.1493 49.9805 39.984C48.7858 41.8187 47.4205 43.6107 45.8845 45.36C44.3485 47.1093 42.7698 48.752 41.1485 50.288C39.5272 51.824 37.9485 53.2533 36.4125 54.576C34.8765 55.856 33.4898 56.944 32.2525 57.84H52.4125L53.6925 51.76H54.6525V62H26.4925C29.4365 58.8 32.2098 55.8133 34.8125 53.04C37.4152 50.2667 39.6765 47.5787 41.5965 44.976C43.5592 42.3307 45.0952 39.728 46.2045 37.168C47.3565 34.5653 47.9325 31.856 47.9325 29.04C47.9325 26.9493 47.7192 25.1573 47.2925 23.664C46.8658 22.1707 46.2898 20.9547 45.5645 20.016C44.8392 19.0347 43.9645 18.3307 42.9405 17.904C41.9165 17.4347 40.8072 17.2 39.6125 17.2Z" fill="#3F3C20"/>
</svg>
