<svg width="85" height="85" viewBox="0 0 85 85" fill="none" xmlns="http://www.w3.org/2000/svg">
<circle cx="42.5" cy="42.5" r="42.5" fill="#E8DAC4"/>
<path d="M50.1475 47.6C51.2568 47.6 52.3235 47.536 53.3475 47.408C54.4142 47.2373 55.3528 47.0453 56.1635 46.832C57.1022 46.6187 57.9768 46.3413 58.7875 46V46.64C58.1475 47.2373 57.4222 47.792 56.6115 48.304C55.8862 48.7733 54.9902 49.2213 53.9235 49.648C52.8568 50.032 51.5982 50.3093 50.1475 50.48V60.4L53.9875 61.36V62H40.8675V61.36L44.7075 60.4V50.48H24.5475C29.0702 45.9573 32.9528 40.944 36.1955 35.44C39.4382 29.8933 42.2755 23.8133 44.7075 17.2H50.1475V47.6ZM44.7075 21.36C43.8115 23.6213 42.7662 25.968 41.5715 28.4C40.3768 30.832 39.0755 33.2213 37.6675 35.568C36.3022 37.9147 34.8728 40.1333 33.3795 42.224C31.9288 44.272 30.4782 46.064 29.0275 47.6H44.7075V21.36Z" fill="#3F3C20"/>
</svg>
