<svg width="38" height="38" viewBox="0 0 38 38" fill="none" xmlns="http://www.w3.org/2000/svg">
<path d="M26.6541 11.55C26.6616 11.55 26.6716 11.55 26.6816 11.55C26.9428 11.55 27.1853 11.6313 27.3841 11.7713L27.3803 11.7688C27.5253 11.895 27.6228 12.0725 27.6466 12.2725V12.2763C27.6716 12.4288 27.6853 12.6038 27.6853 12.7825C27.6853 12.8638 27.6828 12.9438 27.6766 13.0238V13.0125C27.3953 15.9738 26.1753 23.155 25.5553 26.47C25.2928 27.8738 24.7766 28.3438 24.2766 28.3888C23.1903 28.49 22.3653 27.6713 21.3128 26.9813C19.6653 25.9 18.7341 25.2275 17.1353 24.1738C15.2866 22.9575 16.4853 22.2862 17.5378 21.1937C17.8141 20.9062 22.6028 16.55 22.6966 16.155C22.7016 16.1313 22.7041 16.105 22.7041 16.0775C22.7041 15.98 22.6678 15.8913 22.6091 15.8238C22.5441 15.7813 22.4628 15.7575 22.3778 15.7575C22.3216 15.7575 22.2678 15.7688 22.2178 15.7875L22.2203 15.7863C22.0553 15.8238 19.4236 17.5629 14.3253 21.0038C13.7691 21.4425 13.0666 21.72 12.3016 21.7525H12.2941C11.2103 21.6213 10.2266 21.38 9.29281 21.0363L9.38531 21.0663C8.21281 20.6838 7.28156 20.4825 7.36156 19.835C7.40406 19.4983 7.86823 19.1537 8.75406 18.8012C14.2107 16.4238 17.8495 14.8567 19.6703 14.1C21.6791 13.0338 24.0078 12.1563 26.4566 11.5875L26.6528 11.5487L26.6541 11.55ZM18.9141 0.28125C8.53656 0.30625 0.132812 8.725 0.132812 19.1062C0.132812 29.5025 8.56031 37.9313 18.9578 37.9313C29.3553 37.9313 37.7828 29.5037 37.7828 19.1062C37.7828 8.725 29.3791 0.30625 19.0041 0.28125H19.0016C18.9724 0.28125 18.9432 0.28125 18.9141 0.28125Z" fill="white"/>
</svg>
