<svg width="428" height="660" viewBox="0 0 428 660" fill="none" xmlns="http://www.w3.org/2000/svg">
<path d="M168.124 659.548C168.622 659.339 169.522 658.825 170.101 658.392C170.695 657.958 171.338 657.508 171.531 657.379C172.848 656.48 176.994 652.624 179.388 650.054C182.345 646.873 192.018 635.805 193.609 633.765C197.401 628.898 200.165 623.998 202.768 617.508C205.5 610.649 206.448 606.44 206.608 600.4C206.737 595.757 206.223 590.584 205.13 585.139C204.134 580.175 202.35 575.452 200.342 572.464C199.008 570.472 195.666 566.761 191.777 562.97C189.656 560.898 189.142 560.014 189.013 558.247C188.965 557.428 189.013 556.962 189.286 556.223C189.463 555.709 189.768 554.263 189.945 553.026C190.652 548.255 191.777 545.379 194.621 541.219C196.951 537.781 197.497 537.155 198.446 536.817C199.506 536.432 200.727 535.355 201.113 534.44C201.274 534.054 201.563 533.396 201.772 532.946L202.125 532.143L207.074 529.187C217.439 523.002 216.86 523.371 232.607 512.721C244.595 504.608 247.037 502.906 252.018 499.243C254.332 497.524 257.931 494.954 260.004 493.508C267.926 487.998 269.147 487.147 271.413 485.492C273.904 483.677 276.378 481.781 278.323 480.207C278.981 479.661 279.528 479.243 279.56 479.275C279.592 479.307 279.206 480.93 277.953 486.038L277.76 486.841L276.908 486.954C275.768 487.13 275.109 487.484 273.518 488.849C272.779 489.476 271.606 490.375 270.931 490.857C268.585 492.512 267.412 494.102 263.877 500.464C261.868 504.094 261.017 506.038 259.378 510.665C257.241 516.753 255.939 521.412 255.489 524.673C255.007 528.255 255.537 537.122 256.646 543.709C256.823 544.769 257.321 547.452 257.755 549.653C258.639 554.167 260.486 565.139 260.872 568.207C261.017 569.315 261.274 572.03 261.45 574.231C261.772 578.086 262.865 590.311 263.539 597.347C263.716 599.179 263.941 600.994 264.021 601.363C264.295 602.408 265.162 604.898 265.307 605.058C265.387 605.139 265.596 604.705 265.773 604.094C266.143 602.825 267.026 601.251 268.28 599.612C269.099 598.536 269.903 597.235 275.96 587.243C278.515 583.018 281.89 577.685 284.059 574.392C284.589 573.604 285.875 571.58 286.903 569.894C287.948 568.223 289.233 566.167 289.763 565.347C291.145 563.211 291.611 562.07 293.266 557.106C294.905 552.159 296.448 546.745 297.026 543.869C297.492 541.556 298.376 538.022 299.163 535.275C299.854 532.865 299.951 531.211 299.726 525.637C299.533 520.946 299.147 519.114 297.316 513.829C295.516 508.624 295.211 508.046 292.961 505.396C292.399 504.737 291.563 503.612 291.097 502.906C289.779 500.849 286.646 498.199 284.38 497.203C283.288 496.721 281.279 496.239 280.331 496.239C279.881 496.239 279.463 496.207 279.415 496.159C279.271 496.014 280.074 493.058 280.428 492.351C280.604 491.998 280.813 491.163 280.894 490.488C281.07 488.994 282.677 481.813 283.159 480.351C283.609 479.002 284.268 477.524 284.814 476.673C285.136 476.175 285.521 475.869 286.55 475.339C288.719 474.215 290.374 472.351 290.631 470.745C290.711 470.183 290.888 469.974 292.109 468.994C299.388 463.147 303.116 459.853 309.897 453.251C321.21 442.231 330.385 431.966 339.062 420.576C341.842 416.93 344.091 414.247 348.864 408.93C354.986 402.102 357.364 399.42 358.762 397.685C360.176 395.934 364.016 390.729 366.362 387.355C367.68 385.476 367.969 385.171 368.692 384.801C369.142 384.576 369.737 384.223 370.01 384.03C370.813 383.42 371.681 382.006 372.083 380.641C372.613 378.841 373.272 376.994 373.465 376.801C373.641 376.624 373.641 376.753 373.449 379.211C373.272 381.379 373.449 385.444 373.915 389.926C374.075 391.452 374.172 392.753 374.14 392.833C374.107 392.898 373.899 392.946 373.69 392.946C373.465 392.946 373.272 393.058 373.208 393.251C373.159 393.412 372.484 394.311 371.713 395.243C370.942 396.159 369.817 397.733 369.207 398.729C368.596 399.725 367.6 401.122 367.005 401.845C366.121 402.873 365.495 403.95 363.888 407.05C361.943 410.825 361.863 411.002 361.494 412.914C361.285 413.99 361.028 415.564 360.931 416.4C360.835 417.235 360.642 418.938 360.497 420.175C360.16 422.954 360.128 428.4 360.401 432.978C360.61 436.432 360.658 436.849 361.22 438.97C361.413 439.677 361.799 441.412 362.104 442.825C362.908 446.616 364.016 450.649 364.739 452.383C366.057 455.548 367.069 457.733 367.616 458.681C367.921 459.211 368.371 460.094 368.58 460.641C368.805 461.171 369.303 462.199 369.672 462.906C370.058 463.612 370.637 464.946 370.958 465.877C371.601 467.709 372.163 468.898 372.742 469.669C372.95 469.942 373.384 470.713 373.69 471.387C374.011 472.062 374.493 473.042 374.798 473.54C377.401 478.086 380.021 483.564 380.776 486.038C381.001 486.745 381.322 487.693 381.515 488.126C382.897 491.436 383.443 492.849 383.668 493.717C383.797 494.263 384.166 495.516 384.456 496.48C386.159 501.99 386.818 504.207 387.252 505.797C387.525 506.777 388.103 508.576 388.569 509.813C389.598 512.624 389.758 513.315 390.064 515.95C390.24 517.412 390.433 518.295 390.674 518.793C390.867 519.195 391.06 519.532 391.108 519.532C391.22 519.532 392.618 515.532 395.125 508.126C401.408 489.572 405.602 472.078 407.128 458.167C407.466 454.986 407.61 446.632 407.369 443.066C406.646 432.351 403.947 421.556 400.251 414.632C398.21 410.793 396.009 407.918 392.345 404.271C388.537 400.464 385.275 398.183 382.768 397.524C381.628 397.219 380.23 397.219 378.928 397.524C378.35 397.669 377.851 397.717 377.787 397.653C377.691 397.54 377.514 395.821 376.711 386.922C376.405 383.387 376.486 377.797 376.887 376.737C377.032 376.351 377.144 375.661 377.144 375.211C377.16 374.761 377.321 373.636 377.53 372.705L377.9 371.018L380.262 368.126C383.009 364.769 385.773 361.171 387.926 358.086C391.381 353.155 397.552 343.853 400.605 338.97C402.388 336.094 405.65 331.034 407.835 327.725C413.186 319.645 414.536 317.363 417.171 311.982C421.96 302.199 425.961 294.713 429.657 288.624C431.215 286.086 431.537 285.636 431.633 285.926C431.697 286.118 431.745 288.014 431.729 290.167C431.697 294.408 431.89 296.48 432.726 300.737C433.031 302.279 433.127 303.066 433.031 303.404C432.951 303.661 432.822 304.576 432.742 305.444C432.661 306.311 432.34 308.416 432.019 310.102C429.833 322.006 429.833 327.388 432.019 338.006C433.095 343.211 434.236 346.665 436.711 352.223C437.466 353.91 438.88 357.122 439.844 359.371C442.286 365.026 443.717 367.902 446.657 372.946C449.582 377.99 451.349 381.444 453.647 386.6C454.547 388.641 456.154 392.11 457.214 394.311C460.556 401.283 461.585 403.548 462.79 406.52C464.429 410.6 467.353 418.825 469.86 426.44C470.631 428.785 472.062 432.014 472.801 433.106C473.508 434.151 474.954 435.773 475.693 436.351C476.304 436.833 476.336 436.849 476.545 436.56C476.689 436.367 476.77 435.837 476.77 435.13C476.77 432.769 477.252 430.632 480.289 419.13C483.101 408.576 484.306 402.167 485.913 389.412C486.764 382.633 486.957 379.516 486.845 374.392C486.636 365.347 485.254 356.56 483.036 350.134C480.465 342.713 477.718 337.508 473.074 331.339C472.335 330.375 471.499 329.074 471.194 328.448C470.069 326.118 469.603 325.315 467.482 322.102C465.361 318.89 465.249 318.745 462.228 315.757C459.801 313.347 458.741 312.416 457.15 311.323C454.916 309.797 452.603 308.416 450.176 307.195C448.344 306.279 444.97 304.239 443.668 303.259C442.319 302.247 440.406 300.528 438.285 298.408L436.357 296.48L436.245 295.114C436.068 292.865 436.1 287.982 436.309 285.106L436.486 282.392L437.112 281.412C439.153 278.118 439.683 276.014 438.976 273.974C438.816 273.508 438.928 273.283 441.001 269.797C443.99 264.801 446.223 260.303 448.087 255.596C448.939 253.428 449.903 251.018 450.208 250.215C450.53 249.428 451.51 247.259 452.394 245.396C458.709 232.078 460.123 228.946 462.067 223.95C462.838 221.958 463.851 219.468 464.317 218.408C465.473 215.757 471.467 203.05 472.945 200.094C476.288 193.444 478.296 188.608 480.144 182.825C480.771 180.833 481.944 177.267 482.715 174.873C485.495 166.44 487.134 161.01 488.66 155.275C489.785 151.066 491.071 146.825 492.115 143.853C493.851 138.97 495.2 134.247 496.373 128.849C497.498 123.709 497.595 123.452 498.543 122.857C499.86 122.022 500.873 120.303 501.435 117.974C501.772 116.576 501.708 114.568 501.306 113.765C501.162 113.46 501.033 113.074 501.033 112.914C501.033 112.737 501.499 111.002 502.062 109.042C502.64 107.082 503.219 105.01 503.363 104.432C503.508 103.853 503.685 103.339 503.749 103.259C503.99 103.018 507.348 107.291 508.827 109.733L509.598 111.018L509.148 111.693C508.891 112.062 508.248 112.946 507.718 113.669C506.432 115.339 506.175 115.966 505.291 119.628C504.231 124.014 504.151 124.978 504.472 129.251C504.777 133.476 505.179 135.982 506.577 142.681C508.28 150.777 508.971 153.46 510.578 158.279C513.535 167.098 519.046 177.203 525.94 186.359C528.077 189.187 529.218 190.809 531.885 194.729C534.311 198.263 536.256 200.946 539.662 205.379C542.458 209.026 544.033 211.436 549.994 221.219C552.79 225.813 553.738 227.548 554.783 229.974C555.217 230.954 556.711 234.134 558.125 237.042C559.523 239.966 560.905 242.793 561.162 243.339C561.74 244.544 562.158 244.689 562.319 243.757C562.367 243.42 562.528 241.588 562.656 239.693C563.074 233.781 563.54 227.902 563.942 223.227C565.227 208.48 565.758 194.568 565.324 186.681C564.569 173.074 562.865 165.556 556.791 149.331C554.333 142.745 553.047 139.998 550.878 136.737C547.359 131.404 540.369 124.737 533.54 120.191C530.824 118.375 528.687 117.283 526.309 116.48C523.176 115.436 521.44 115.147 518.307 115.098C516.218 115.066 515.575 115.002 515.527 114.841C515.254 113.942 513.808 110.793 513.037 109.412C512.105 107.773 510.578 105.396 509.71 104.271C509.485 103.966 509.019 103.018 508.666 102.183C508.328 101.347 507.525 99.6124 506.882 98.3273C506.143 96.9136 505.693 95.8052 505.693 95.4999C505.693 95.2268 506.095 93.3473 506.593 91.3232C509.084 81.0421 509.935 76.3513 512.506 58.5682C514.37 45.765 515.045 40.1746 515.736 31.8212C515.961 29.1224 516.331 25.0421 516.539 22.7449C516.909 18.6807 517.054 16.528 517.439 8.99391C517.6 5.74893 517.6 5.23487 517.359 4.03005C517.038 2.47182 516.7 1.73286 515.945 1.02604C514.756 -0.114526 512.972 -0.323361 511.526 0.495916C510.176 1.267 509.662 2.21479 509.389 4.44772C509.293 5.23487 509.116 6.21479 508.987 6.63246C508.698 7.62845 508.361 13.4758 508.457 15.7891C508.521 16.9939 508.65 17.8614 508.843 18.3594C509.116 19.0823 509.116 19.2268 508.843 22.1345C508.698 23.7891 508.328 28.014 508.023 31.4999C507.252 40.4156 506.786 44.3031 504.874 57.524C502.929 70.9056 501.692 78.4236 500.664 82.8413L500.15 85.0421L499.121 85.2509C496.084 85.8775 495.49 88.6566 497.113 94.5521L497.514 96.014L496.711 99.2911C495.795 103.05 494.349 108.126 492.678 113.508C491.778 116.383 491.424 117.315 491.071 117.685C490.83 117.958 490.251 118.954 489.785 119.902C488.95 121.636 488.934 121.653 485.704 124.898C483.727 126.889 481.574 128.865 480.144 130.006C477.927 131.757 470.776 137.042 470.599 137.042C470.551 137.042 470.117 136.657 469.651 136.191C466.663 133.267 464.413 131.387 462.87 130.536C461.665 129.861 455.993 127.404 454.595 126.954C452.249 126.183 447.011 125.251 444.07 125.074C439.491 124.801 431.167 125.749 425.431 127.179C418.087 129.026 406.968 134.231 395.35 141.235C387.573 145.942 385.548 147.484 379.073 153.669C377.787 154.889 374.573 157.91 371.922 160.4C369.271 162.873 364.643 167.259 361.638 170.151C358.633 173.026 355.259 176.223 354.15 177.235C347.401 183.355 340.685 188.657 332.393 194.408C325.179 199.387 322.334 201.155 317.691 203.484C312.79 205.926 309.351 207.275 307.487 207.484C306.571 207.58 305.478 208.078 305.478 208.383C305.478 208.512 305.896 208.64 308.082 209.235C310.588 209.91 314.879 210.632 318.076 210.922C319.651 211.05 336.957 210.889 339.464 210.697C343.432 210.408 348.767 209.829 352.961 209.235C358.457 208.448 372.886 204.753 378.253 202.761C379.876 202.151 381.563 201.653 382.945 201.379C384.134 201.138 385.821 200.689 386.705 200.4C387.589 200.094 389.276 199.596 390.449 199.291C391.638 198.97 393.374 198.472 394.306 198.167C396.652 197.412 401.858 196.207 404.381 195.837C405.522 195.661 406.823 195.452 407.273 195.371C407.707 195.291 409.153 195.066 410.487 194.873C411.804 194.697 413.588 194.408 414.424 194.231C415.259 194.07 416.689 193.813 417.589 193.685C420.064 193.315 426.523 191.404 429.11 190.247C429.817 189.942 431.151 189.412 432.083 189.058C433.577 188.512 435.602 187.484 441.869 184.062C447.059 181.235 457.905 171.018 461.537 165.54C462.308 164.383 464.927 159.741 465.891 157.829C467.402 154.841 468.269 149.765 467.9 146.183C467.611 143.371 467.482 143.677 469.073 143.05C471.081 142.247 475.083 140.207 477.509 138.761C480.562 136.93 484.242 134.151 486.941 131.596C487.439 131.114 487.905 130.761 487.953 130.809C488.114 130.986 486.893 135.114 484.724 141.701C483.535 145.283 482.024 150.263 481.349 152.769C479.887 158.183 478.778 161.958 476.529 168.994C474.488 175.452 474.456 175.548 473.154 180.576C471.435 187.243 470.117 191.082 467.514 197.09C466.759 198.825 465.136 202.568 463.915 205.396C460.958 212.271 460.653 212.962 458.532 217.428C457.52 219.564 455.334 224.608 453.647 228.657C451.96 232.705 449.582 238.295 448.344 241.106C447.123 243.902 445.275 248.319 444.247 250.922C441.435 257.958 440.76 259.355 434.477 271.098C433.256 273.396 432.035 275.564 431.778 275.918C431.504 276.271 431.151 276.93 430.99 277.363C430.797 277.894 430.621 278.151 430.476 278.102C430.348 278.07 429.769 278.038 429.175 278.038C426.925 278.038 424.707 279.628 423.197 282.327C422.442 283.677 422.394 283.725 421.108 284.416C420.385 284.817 419.035 285.669 418.119 286.327C415.532 288.143 407.498 291.966 404.059 293.042C403.063 293.347 398.5 294.472 398.242 294.472C398.178 294.472 398.018 294.102 397.921 293.653C397.664 292.608 397.021 291.5 395.688 289.845C393.984 287.725 391.976 286.167 388.553 284.351C387.364 283.709 385.693 282.745 384.857 282.199C382.351 280.56 380.294 279.468 376.887 277.958C368.419 274.183 364.852 273.412 353.09 272.769C347.787 272.48 342.308 272.817 333.92 273.926C324.472 275.163 321.37 275.918 308.933 279.934C305.752 280.962 300.578 282.584 297.444 283.548C289.105 286.102 286.373 287.098 274.145 292.142C266.657 295.211 258.655 298.183 253.336 299.837C250.074 300.849 245.848 301.733 242.907 302.006C241.493 302.151 241.22 302.134 240.32 301.829C239.726 301.636 239.195 301.54 239.019 301.604C238.762 301.717 238.826 301.829 239.597 302.52C241.14 303.902 242.682 304.833 247.262 307.114C252.163 309.556 256.758 311.452 261.209 312.865C265.098 314.118 265.468 314.199 267.235 314.408C268.071 314.504 269.838 314.793 271.172 315.05C274.016 315.612 276.459 315.918 280.733 316.239C282.452 316.383 284.686 316.624 285.698 316.801C286.694 316.978 287.851 317.122 288.269 317.122C289.956 317.122 294.52 317.781 296.11 318.247C298.039 318.825 301.622 319.709 303.534 320.094C304.804 320.351 309.335 322.006 310.781 322.745C311.392 323.05 313.657 323.869 317.53 325.155C318.542 325.508 320.535 326.183 321.949 326.681C325.998 328.094 329.71 329.122 335.977 330.552C340.347 331.564 343.513 331.757 348.43 331.355C350.31 331.195 352.768 330.938 353.925 330.777C355.066 330.6 357.171 330.311 358.585 330.134C360.979 329.829 361.445 329.701 365.495 328.335C367.873 327.532 370.203 326.713 370.669 326.504C372.051 325.894 374.606 324.367 378.671 321.701C383.009 318.841 384.52 317.508 386.866 314.392C387.573 313.46 388.553 312.175 389.067 311.532C390.08 310.247 390.931 308.576 392.088 305.556C392.811 303.677 393.068 302.697 393.293 300.865C393.406 300.03 393.984 299.291 394.563 299.291C396.362 299.243 400.588 298.375 403.577 297.412C407.225 296.239 418.296 291.885 422.265 290.086C423.518 289.508 424.547 289.074 424.547 289.106C424.547 289.139 423.422 291.275 422.056 293.861C419.726 298.247 417.412 302.825 413.492 310.857C411.676 314.568 409.571 318.247 406.598 322.89C402.179 329.781 400.058 333.155 397.23 337.765C391.911 346.456 385.114 356.351 379.587 363.5L377.562 366.102L376.807 366.006C376.164 365.926 375.923 365.99 375.329 366.327C374.14 367.018 373.497 368.287 373.095 370.632C372.95 371.58 372.79 371.95 372.147 372.817C371.745 373.379 371.183 374.006 370.91 374.199C370.653 374.392 369.656 375.259 368.692 376.126C366.555 378.086 365.125 379.066 362.618 380.271C359.276 381.877 355.275 383.098 348.864 384.496C344.381 385.46 344.847 385.476 344.589 384.48C344.268 383.211 343.031 380.865 342.468 380.464C342.195 380.255 341.52 379.436 340.958 378.632C339.544 376.544 338.001 375.034 336.009 373.749C335.077 373.155 333.888 372.287 333.357 371.821C332.827 371.371 331.413 370.263 330.224 369.363C329.035 368.464 327.589 367.371 327.01 366.922C325.789 365.958 322.35 363.869 320.326 362.857C319.056 362.231 316.405 361.074 311.456 359.034C308.146 357.669 302.04 356.03 297.203 355.211C296.673 355.114 294.68 354.938 292.784 354.793C288.847 354.504 286.887 354.247 280.331 353.122C277.712 352.673 275.028 352.303 274.225 352.287C272.49 352.239 259.812 352.592 259.121 352.705C258.847 352.753 257.08 352.93 255.184 353.106C252.066 353.412 248.001 354.038 242.216 355.13C239.774 355.58 235.034 356.946 232.174 358.038C229.297 359.114 223.802 361.604 221.633 362.793C219.062 364.223 217.712 364.881 215.864 365.62C214.996 365.974 213.534 366.616 212.602 367.05C209.517 368.512 203.282 371.114 201.386 371.741C200.358 372.078 198.783 372.512 197.899 372.689C194.718 373.379 189.383 375.066 188.419 375.693C187.888 376.046 186.378 376.4 185.43 376.4C184.514 376.4 180.915 376.962 180.143 377.219C179.822 377.315 178.087 377.428 176.207 377.476L172.832 377.572L173.459 378.102C175.789 380.126 182.554 383.709 187.455 385.524C188.419 385.894 189.576 386.263 190.026 386.359C190.459 386.456 191.874 386.809 193.159 387.163C194.444 387.5 195.842 387.837 196.292 387.885C197.851 388.062 204.037 389.299 206.898 389.99C208.488 390.375 210.545 390.809 211.477 390.938C212.409 391.082 214.466 391.452 216.057 391.741C217.648 392.046 219.64 392.4 220.492 392.528C221.343 392.673 222.789 393.01 223.705 393.283C224.621 393.556 226.308 394.022 227.465 394.311C228.606 394.616 230.165 395.082 230.92 395.355C231.675 395.645 233.234 396.11 234.375 396.4C235.741 396.737 237.46 397.347 239.276 398.134C240.834 398.793 243.743 399.853 245.751 400.48C247.76 401.122 250.074 401.926 250.893 402.279C251.697 402.649 252.982 403.163 253.738 403.42C254.493 403.677 255.827 404.207 256.71 404.592C257.594 404.962 259.153 405.54 260.165 405.877C261.177 406.215 262.479 406.713 263.057 407.002C263.636 407.291 265.066 407.934 266.239 408.432C267.428 408.93 269.083 409.685 269.935 410.118C271.445 410.873 272.747 411.323 275.591 412.062C276.346 412.255 277.889 412.769 279.013 413.203C283.095 414.777 287.98 415.628 297.412 416.4C299.565 416.576 301.397 416.769 301.477 416.817C301.654 416.93 305.687 416.48 308.194 416.078C310.444 415.709 313.143 414.873 315.12 413.958C315.875 413.604 317.417 412.898 318.574 412.4C321.033 411.323 325.966 408.544 327.573 407.323C328.955 406.279 331.06 404.48 333.47 402.279C337.278 398.793 337.021 399.098 337.664 397.524C337.985 396.737 338.419 395.645 338.644 395.114C339.11 394.022 339.174 393.026 338.837 391.934L338.612 391.195L339.447 391.114C339.897 391.066 341.569 390.922 343.159 390.777C349.812 390.183 356.207 388.624 361.333 386.343C362.345 385.894 363.213 385.54 363.245 385.588C363.358 385.701 358.135 392.898 356.046 395.516C354.022 398.038 349.731 403.05 342.677 411.098C340.556 413.524 337.214 417.508 335.27 419.934C331.445 424.689 329.694 426.729 325.162 431.741C315.602 442.343 306.812 451.387 301.06 456.56C297.717 459.564 289.699 466.392 287.787 467.837L287.225 468.287L286.582 467.95C285.473 467.371 284.171 467.757 282.468 469.138C281.183 470.183 280.974 470.295 278.965 471.018C276.507 471.886 269.147 473.845 267.235 474.134C266.4 474.263 264.729 474.408 263.539 474.472C261.708 474.568 261.29 474.536 260.888 474.327C260.277 474.006 259.828 474.006 259.088 474.311C258.253 474.665 258.044 474.536 258.173 473.781C258.301 472.946 257.98 470.488 257.578 469.235C256.742 466.649 254.975 463.564 253.095 461.412C251.327 459.404 245.028 453.91 240.963 450.857C237.669 448.383 230.277 443.58 226.308 441.315C223.85 439.934 221.472 438.857 215.157 436.351C208.135 433.54 207.251 433.219 203.829 432.239C200.727 431.355 198.397 430.825 195.634 430.359C193.946 430.086 192.918 430.022 190.186 430.022C182.457 430.054 177.444 430.488 168.14 431.982C161.231 433.09 158.853 433.556 153.309 434.873C145.982 436.624 140.052 437.62 135.714 437.845C131.263 438.086 119.099 437.155 117.492 436.464C116.512 436.03 116.415 436.078 117.074 436.673C117.396 436.946 117.797 437.444 117.958 437.781C118.392 438.6 122.248 441.524 125.671 443.628C128.981 445.653 130.459 446.649 134.734 449.717C136.598 451.05 138.478 452.351 138.927 452.608C139.361 452.865 140.406 453.46 141.225 453.942C142.816 454.889 145.114 455.902 148.729 457.283C149.967 457.749 151.557 458.392 152.264 458.697C152.987 459.018 154.353 459.5 155.317 459.773C158.628 460.737 161.423 461.877 165.923 464.11C171.868 467.066 174.969 469.026 179.581 472.721C183.92 476.191 187.246 478.311 191.054 480.014C192.982 480.881 194.509 481.685 196.212 482.761C197.112 483.323 201.29 485.122 203.395 485.845C205.66 486.632 208.681 487.355 210.931 487.645C212.007 487.773 214.08 488.143 215.543 488.448C222.87 489.99 226.196 490.279 233.411 490.006C237.846 489.845 238.392 489.797 240.24 489.347C243.55 488.56 249.833 486.552 251.311 485.797C253.625 484.641 255.73 483.05 258.092 480.673C259.378 479.387 260.647 478.054 260.904 477.733L261.37 477.138L264.584 477.315C268.183 477.508 271.027 477.347 274.257 476.785C275.302 476.608 276.394 476.416 276.7 476.367C277.085 476.303 277.214 476.319 277.133 476.448C276.957 476.753 272.361 480.287 269.485 482.343C268.023 483.404 264.198 486.038 260.968 488.207C254.396 492.624 253.577 493.219 248.355 497.219C243.213 501.138 240.979 502.713 233.25 507.869C229.538 510.327 224.252 513.926 221.52 515.837C215.446 520.094 214.675 520.608 207.572 524.994C202.045 528.432 201.916 528.496 201.482 528.271C200.727 527.885 199.49 527.982 198.285 528.544L197.208 529.042L196.1 528.801C195.505 528.657 194.027 528.464 192.838 528.367C189.013 528.062 184.466 527.564 182.313 527.211C180.481 526.922 179.211 526.873 172.077 526.777C167.048 526.713 163.866 526.616 163.77 526.52C163.689 526.424 163.4 525.797 163.127 525.106C161.584 521.203 158.66 516.849 155.623 513.91C153.437 511.789 149.131 508.769 142.077 504.4C137.449 501.524 135.858 500.705 132.58 499.532C131.086 499.002 128.515 497.877 126.715 496.994C122.923 495.114 121.3 494.472 116.03 492.737C110.55 490.938 106.035 490.118 100.041 489.813C91.2198 489.363 90.2235 489.331 86.3831 489.476C83.9568 489.556 79.5379 489.54 75.2155 489.444C71.2787 489.347 66.8759 489.267 65.4136 489.235C60.1431 489.171 57.0579 488.785 54.5191 487.869C53.5068 487.516 52.5748 487.468 52.1731 487.773C51.8999 487.966 51.9481 488.03 52.6552 488.64C54.0531 489.781 55.9653 490.97 57.4436 491.612C59.3236 492.432 63.7264 494.649 66.683 496.271C69.4308 497.765 73.4479 500.56 75.4083 502.295C76.1796 502.986 77.915 504.528 79.2648 505.733C80.6145 506.938 84.3906 510.584 87.6686 513.829C91.8786 518.006 94.2246 520.191 95.7029 521.347C96.8438 522.247 98.4828 523.564 99.3184 524.287C102.227 526.777 105.874 529.347 107.288 529.926C108.011 530.215 109.57 530.954 110.743 531.564C113.539 533.026 114.825 533.572 119.501 535.291C126.217 537.749 130.266 538.873 134.589 539.516C140.55 540.383 145.757 540.721 148.842 540.416C152.168 540.094 156.073 539.034 158.129 537.894C161.873 535.821 165.473 532.608 166.598 530.359L167.015 529.54L173.62 529.428C180.063 529.315 182.216 529.396 184.112 529.813C184.53 529.91 185.816 530.167 186.973 530.375C188.113 530.584 189.495 530.906 190.026 531.098C191.215 531.5 194.444 533.042 194.444 533.203C194.444 533.54 186.619 538.199 180.706 541.379C172.157 545.974 169.313 547.548 165.119 549.974C159.656 553.122 158.145 553.958 153.389 556.4C151.348 557.444 148.103 559.163 146.158 560.223C139.297 563.982 128.129 569.042 121.782 571.259C119.018 572.223 118.761 572.351 118.761 572.737C118.761 573.122 117.813 573.701 117.363 573.588C117.122 573.524 116.656 573.717 115.917 574.183C114.632 574.986 114.326 575.002 111.289 574.488C110.229 574.311 108.461 574.054 107.353 573.91C102.805 573.331 101.488 573.09 100.668 572.641C98.8202 571.644 96.3778 569.444 92.4731 565.315C91.7661 564.56 90.3521 563.291 89.3398 562.504C88.3274 561.717 86.576 560.319 85.4351 559.387C82.2696 556.849 78.3649 554.424 75.1672 553.01C73.4479 552.255 69.5272 550.793 66.2974 549.717L63.7264 548.849L58.472 548.801C53.4747 548.753 53.0569 548.769 50.3574 549.171C46.8223 549.701 41.1018 550.777 39.7039 551.179C39.1254 551.355 37.7114 551.741 36.5544 552.046C35.3975 552.351 33.6942 552.946 32.7783 553.363C31.8624 553.765 30.4644 554.343 29.661 554.632C28.8576 554.922 27.7006 555.42 27.0739 555.725C22.5266 558.006 13.8656 559.773 9.80018 559.227C8.04872 559.002 4.33687 557.717 2.82643 556.817C2.21583 556.464 1.54097 556.159 1.3481 556.159C1.15529 556.159 0.785718 556.351 0.512586 556.576C-0.435474 557.363 -0.0338013 558.536 1.41243 559.211C2.74611 559.821 4.97963 561.122 7.72737 562.873C9.18959 563.805 11.4553 565.139 12.789 565.829C14.1066 566.536 15.9223 567.596 16.8061 568.175C20.5822 570.649 25.5957 573.524 27.3471 574.247C28.3594 574.649 29.9342 575.339 30.8662 575.757C31.7981 576.175 33.164 576.705 33.9191 576.93C37.2614 577.942 40.9733 578.841 42.6444 579.05C43.6246 579.179 45.1672 579.404 46.0349 579.548C48.0595 579.885 49.0076 579.885 52.9605 579.644C55.0976 579.5 56.7366 579.307 57.8614 579.05C63.8068 577.701 66.1367 577.444 69.8164 577.685C71.2465 577.781 72.6123 577.894 72.8855 577.926C73.1426 577.974 74.7977 578.263 76.5331 578.568C80.4378 579.275 83.9728 579.612 85.8208 579.436C86.576 579.371 88.4078 579.243 89.9182 579.147C93.4533 578.906 96.8759 578.391 98.1936 577.894C98.772 577.669 99.5273 577.412 99.8968 577.299C100.25 577.187 100.829 576.898 101.166 576.673C101.745 576.287 101.809 576.271 102.323 576.48C102.837 576.689 105.826 577.604 107.321 578.006C107.69 578.102 107.963 578.247 107.915 578.327C107.867 578.408 107.128 578.857 106.26 579.339C105.408 579.805 104.332 580.432 103.882 580.721C102.87 581.363 101.118 581.861 99.3184 582.006C97.84 582.134 97.5187 582.247 96.9081 582.906C96.3296 583.532 96.0082 583.661 94.8031 583.789C94.08 583.869 93.1159 584.175 91.8304 584.705C90.7699 585.139 89.4844 585.669 88.9541 585.877C86.6242 586.777 81.0483 589.733 77.7864 591.789C76.5974 592.544 73.6729 594.375 71.2787 595.885C68.9005 597.379 66.4259 599.002 65.7993 599.468C63.1961 601.428 59.2111 605.62 57.0579 608.657C55.676 610.616 53.089 614.906 51.9321 617.203C50.6787 619.661 48.4452 624.673 47.5132 627.13C47.0954 628.223 46.4366 630.472 46.0349 632.11C45.2154 635.5 44.2031 639.05 43.239 641.829C42.8854 642.857 42.4194 644.303 42.2106 645.042C42.0017 645.765 41.6321 646.713 41.4071 647.146C40.909 648.094 40.8768 648.753 41.3107 649.46C42.082 650.729 43.8978 650.552 44.7976 649.139C45.7135 647.677 47.5935 646.022 49.8431 644.705C51.0322 644.014 52.864 642.857 53.9246 642.134C56.0295 640.721 57.8453 639.709 61.7982 637.733C65.9278 635.661 74.637 630.199 77.1598 628.094C81.434 624.544 84.6317 621.717 85.7886 620.496C87.2026 619.018 89.9022 615.082 91.7661 611.821C92.3285 610.857 93.3408 609.139 94.0318 608.014C96.8277 603.468 97.84 600.592 98.1936 596.223C98.3703 594.038 98.4185 593.781 99.3666 590.616C99.6879 589.556 100.025 588.384 100.122 588.03C100.25 587.484 100.379 587.323 100.813 587.163C101.954 586.745 102.339 586.52 103.705 585.492C104.476 584.914 105.778 584.03 106.597 583.532C107.417 583.034 108.413 582.375 108.831 582.086C109.233 581.781 109.924 581.379 110.357 581.203C110.775 581.01 111.45 580.624 111.852 580.335C112.382 579.966 112.671 579.853 112.896 579.95C113.491 580.175 114.728 580.094 115.596 579.773C116.705 579.355 117.669 578.52 118.103 577.62C118.279 577.219 118.601 576.785 118.793 576.657C119.002 576.528 120.352 575.982 121.814 575.436C130.411 572.191 130.234 572.271 143.909 565.155C152.039 560.93 154.369 559.661 162.789 554.873C166.63 552.689 173.073 549.106 177.09 546.922C185.028 542.616 189.158 540.287 192.018 538.504C193.03 537.877 193.882 537.396 193.914 537.428C193.946 537.46 193.48 538.183 192.87 539.018C190.54 542.231 188.981 545.251 188.274 547.95L187.905 549.331L187.149 549.444C186.732 549.492 186.201 549.669 185.96 549.829C185.382 550.199 179.726 556.014 178.151 557.845C175.692 560.689 174.278 563.163 172.189 568.207C168.751 576.528 167.337 581.315 166.405 587.725C165.473 594.295 165.457 598.552 166.324 612.303C167.192 625.974 167.337 629.861 167.417 641.701C167.497 656.946 167.497 657.91 167.208 658.873C166.839 660.126 166.79 660.094 168.124 659.548ZM312.79 365.155C312.741 365.058 312.806 365.042 312.934 365.09C313.224 365.203 313.272 365.315 313.047 365.315C312.95 365.315 312.838 365.251 312.79 365.155Z" fill="#97A179"/>
</svg>
