<svg width="607" height="903" viewBox="0 0 607 903" fill="none" xmlns="http://www.w3.org/2000/svg">
<path d="M6.30011 -19.7369C-30.9479 -5.88446 -62.5173 21.5503 -79.0795 54.5936C-85.8395 68.0407 -91.18 84.7989 -93.7488 100.814C-94.4248 104.733 -95.0333 107.977 -95.1008 108.112C-95.1685 108.179 -97.3317 105.476 -99.9005 102.03C-108.824 90.0696 -118.693 79.5958 -130.591 69.6625C-139.717 62.0267 -157.361 52.0259 -169.259 47.7687C-172.166 46.7551 -174.532 45.5388 -174.532 45.1334C-174.464 44.728 -174.194 42.0926 -173.856 39.3221C-172.166 24.9966 -177.709 14.3199 -188.592 10.9413C-195.15 8.91412 -195.961 9.04926 -196.975 12.4279C-197.448 14.0497 -197.786 18.0365 -197.786 21.4152C-197.786 26.5507 -197.448 28.0374 -195.961 31.2133C-194.068 35.1326 -190.485 39.3221 -187.038 41.552L-185.01 42.8359L-187.714 42.4305C-204.952 39.7275 -219.013 39.2545 -232.465 41.0114C-240.375 42.025 -253.489 44.8631 -255.449 46.0118C-256.058 46.3497 -250.312 46.6876 -241.389 46.9579C-221.176 47.4309 -205.29 49.9311 -188.728 55.1342C-179.804 57.9723 -165.067 64.1215 -165.067 64.9999C-165.067 65.2702 -165.743 65.7432 -166.555 66.1487C-172.301 68.7841 -180.075 77.6362 -182.644 84.3259C-184.266 88.7857 -185.483 96.3539 -184.739 98.246C-184.334 99.3271 -183.996 98.9893 -182.644 95.9485C-176.424 82.6365 -167.298 74.3251 -157.631 73.1763C-152.223 72.5005 -150.331 73.1087 -144.652 77.2983C-124.71 92.0968 -107.201 115.004 -98.1429 138.385C-96.1149 143.52 -96.0472 144.399 -95.1008 161.63C-94.4924 171.495 -93.7488 183.05 -93.4108 187.308C-92.3968 199.268 -91.5856 197.984 -99.7653 197.849C-103.619 197.849 -106.999 197.984 -107.201 198.187C-107.877 198.863 -104.903 209.81 -102.74 214.202C-100.374 219.27 -95.6417 224.676 -91.9912 226.568C-89.0844 228.054 -89.2872 227.176 -87.0563 243.731C-84.8256 259.814 -81.1075 283.6 -74.2122 325.495C-71.035 344.415 -68.5338 360.025 -68.669 360.092C-68.7366 360.16 -72.1166 354.822 -76.1727 348.267C-90.504 324.954 -114.773 286.032 -128.36 264.611C-135.864 252.651 -142.083 242.718 -142.083 242.515C-142.083 242.312 -140.055 241.501 -137.486 240.69C-127.482 237.515 -119.843 231.365 -116.125 223.594C-113.759 218.594 -112.542 210.418 -113.421 205.147L-114.029 201.16L-121.127 201.228C-125.048 201.228 -129.915 201.633 -131.943 202.106C-140.934 204.268 -148.911 209.81 -153.575 217.243L-156.077 221.162L-161.079 213.526C-163.851 209.404 -169.462 201.025 -173.585 195.011L-181.089 184.064L-177.979 180.415C-176.289 178.388 -173.923 175.55 -172.842 174.198L-170.814 171.631L-167.569 172.509C-162.837 173.658 -155.468 172.847 -148.776 170.414C-145.666 169.333 -142.962 168.387 -142.759 168.387C-142.489 168.387 -141.948 170.414 -141.407 172.847C-140.258 178.793 -136.608 185.889 -133.228 188.997C-128.563 193.186 -125.116 194.403 -117.612 194.403C-114.029 194.403 -110.852 194.133 -110.581 193.862C-109.635 192.916 -111.595 180.753 -113.285 176.901C-116.192 170.279 -123.223 164.333 -130.118 162.643C-131.132 162.373 -131.876 161.765 -131.808 161.292C-131.47 159.805 -137.892 152.98 -142.759 149.534C-145.463 147.642 -149.452 145.615 -152.223 144.736L-157.091 143.182L-156.482 139.06C-155.671 132.844 -155.874 121.289 -156.955 116.693C-158.037 111.963 -157.969 111.896 -160.268 124.329C-161.079 128.586 -162.566 134.465 -163.58 137.506L-165.405 142.912L-169.529 144.061C-176.357 145.885 -188.052 152.845 -188.052 155.075C-188.052 155.954 -185.28 160.413 -182.644 163.792L-181.224 165.617L-183.793 167.306C-185.212 168.252 -187.105 169.13 -187.916 169.198C-189.336 169.401 -189.742 168.86 -191.026 165.008C-191.905 162.576 -193.054 159.603 -193.73 158.386C-195.015 155.954 -195.555 156.021 -200.017 159.332C-201.166 160.211 -202.315 160.954 -202.518 160.954C-202.721 160.954 -204.276 159.738 -205.966 158.251C-213.943 151.359 -225.773 143.453 -235.44 138.655C-238.549 137.033 -241.186 135.546 -241.321 135.209C-241.456 134.871 -242.2 134.6 -243.011 134.6C-243.822 134.6 -245.715 133.992 -247.27 133.317C-249.906 132.1 -250.041 131.897 -252.205 125.073C-256.464 111.693 -263.967 100.341 -272.485 94.597C-274.175 93.4483 -275.662 92.4347 -275.797 92.2996C-275.932 92.232 -274.716 90.5427 -273.093 88.5154C-264.846 78.447 -264.373 66.7568 -271.606 54.7964C-275.392 48.5121 -275.459 48.5121 -280.124 53.4449C-285.126 58.7832 -288.979 64.5945 -290.534 69.2571C-292.021 73.5817 -292.021 80.7445 -290.534 84.1907C-289.926 85.6098 -289.453 86.9612 -289.453 87.2316C-289.453 87.4343 -292.089 87.5694 -295.334 87.4343C-301.824 87.164 -308.381 87.7722 -308.381 88.583C-308.381 88.9209 -306.353 89.3263 -303.784 89.5291C-297.362 90.1372 -290.061 92.2996 -283.369 95.6107C-276.27 99.0569 -268.023 106.895 -264.238 113.72C-262.074 117.64 -258.356 127.37 -258.356 129.059C-258.356 129.465 -259.776 129.397 -261.872 128.789C-269.443 126.829 -279.718 125.748 -291.278 125.748C-301.824 125.748 -302.973 125.613 -302.973 124.6C-302.973 123.991 -303.919 121.491 -305.001 119.126L-307.096 114.734L-310.206 117.842C-312.437 120.072 -313.518 121.829 -314.127 124.194C-314.938 127.438 -315.006 127.505 -318.588 128.384C-320.616 128.857 -324.808 130.005 -327.985 130.951C-331.162 131.897 -334.339 132.844 -335.083 133.046C-336.165 133.384 -336.3 133.249 -335.624 132.506C-334.677 131.357 -335.286 130.884 -342.316 127.37C-353.132 122.032 -364.489 119.802 -373.413 121.153C-378.212 121.897 -385.107 124.059 -385.716 125.005C-385.851 125.275 -381.254 125.478 -375.441 125.546C-365.841 125.613 -364.354 125.748 -359.419 127.37C-356.445 128.384 -353.403 129.668 -352.727 130.208C-351.51 131.154 -351.578 131.222 -354.417 131.222C-367.058 131.222 -381.727 137.371 -391.935 146.966C-396.938 151.629 -397.411 151.561 -399.709 145.547C-402.481 138.452 -401.467 127.911 -396.938 115.68L-395.586 111.963L-398.019 114.666C-403.427 120.68 -406.469 129.668 -406.537 140.006C-406.672 147.98 -405.388 156.427 -403.968 157.913C-403.157 158.724 -403.562 159.67 -407.01 164.941C-417.421 180.821 -424.451 200.552 -425.735 217.918C-426.073 221.905 -426.479 223.797 -427.02 223.797C-428.439 223.797 -435.605 218.189 -439.188 214.202C-446.286 206.498 -449.734 196.971 -449.734 185.078C-449.734 181.091 -449.396 176.09 -448.99 174.063C-448.517 171.968 -448.314 170.144 -448.517 170.009C-448.99 169.468 -452.302 177.374 -453.452 181.969C-455.007 187.916 -454.466 198.998 -452.438 204.336C-448.922 213.458 -441.892 221.567 -431.076 229L-426.344 232.244L-425.871 237.65C-424.586 252.043 -419.854 268.396 -412.756 283.194C-410.255 288.397 -408.565 292.789 -408.768 293.465C-408.97 294.073 -410.796 296.168 -412.824 298.06C-417.218 302.25 -424.451 305.831 -431.414 307.318C-437.633 308.737 -452.302 308.872 -460.685 307.656C-463.93 307.183 -466.769 306.912 -466.972 307.115C-467.648 307.791 -457.44 312.318 -452.032 313.737C-445.002 315.629 -431.617 315.764 -423.64 314.075C-417.353 312.724 -409.849 310.223 -403.9 307.588L-399.777 305.696L-395.518 311.169C-393.22 314.143 -391.327 316.913 -391.327 317.319C-391.327 317.724 -392.746 320.495 -394.504 323.468C-397.884 329.279 -398.695 331.644 -395.856 327.455C-394.842 326.036 -393.017 323.535 -391.732 321.914L-389.434 319.076L-376.049 335.09C-359.622 354.957 -328.458 391.311 -300.336 423.476C-288.641 436.856 -278.637 448.343 -278.096 449.019C-276.676 450.641 -283.098 447.6 -325.619 426.382C-384.161 397.258 -404.306 388.271 -443.852 373.742C-459.265 368.066 -461.631 366.58 -473.326 354.484C-486.508 340.902 -495.905 325.968 -501.989 309.075C-504.152 302.993 -504.152 300.763 -502.057 296.438C-498.136 288.33 -491.24 284.005 -477.72 281.302L-471.636 280.086L-475.287 279.005C-480.289 277.45 -487.049 277.586 -492.39 279.207C-496.716 280.491 -503.882 284.681 -505.707 286.843C-506.18 287.451 -506.856 287.992 -507.127 287.992C-508.884 287.992 -509.831 257.651 -508.411 245.758C-507.059 234.068 -503.206 216.567 -500.029 207.647C-499.488 206.025 -499.15 204.539 -499.285 204.404C-499.758 203.931 -506.451 215.418 -509.425 221.973C-522.878 250.894 -524.703 284.073 -514.427 313.602C-510.101 326.238 -500.975 343.064 -492.39 354.551C-490.091 357.525 -488.334 360.025 -488.401 360.092C-488.469 360.16 -491.781 359.755 -495.634 359.146C-505.775 357.66 -526.258 357.66 -535.992 359.146C-567.629 364.079 -595.548 379.418 -618.465 404.556C-623.4 409.894 -631.512 420.165 -631.512 420.976C-631.512 421.381 -629.754 420.098 -623.264 414.827C-611.57 405.299 -597.103 396.379 -583.853 390.5C-573.51 385.905 -555.731 380.432 -554.65 381.513C-554.379 381.716 -554.582 383.743 -554.988 385.973C-557.219 398.204 -567.224 410.84 -582.839 421.246C-589.464 425.706 -589.667 425.976 -586.895 425.436C-572.767 423.003 -559.247 413.948 -550.594 401.177C-547.619 396.785 -542.482 386.852 -540.656 381.851L-539.44 378.675L-532.747 378.202C-521.39 377.391 -506.113 379.081 -492.119 382.594C-482.385 385.095 -478.734 386.378 -453.249 396.717L-432.969 405.029L-432.496 408.475C-430.738 423.544 -433.577 439.559 -440.337 452.33C-442.974 457.195 -443.244 457.533 -446.151 458.276C-451.694 459.628 -458.116 457.601 -466.499 451.722C-469.743 449.357 -470.555 449.019 -469.946 450.168C-467.242 455.236 -459.739 460.506 -452.1 462.669L-448.179 463.817L-450.748 466.52C-458.116 474.224 -470.487 481.454 -484.142 486.117L-491.916 488.752L-483.804 488.414C-467.58 487.806 -454.871 482.603 -443.717 472.129C-430.738 459.898 -424.045 443.613 -421.95 418.814C-421.544 414.354 -421.139 410.57 -420.936 410.435C-420.463 409.962 -310.138 457.601 -309.057 458.749C-308.854 458.952 -309.868 458.952 -311.288 458.682C-312.707 458.412 -318.588 458.209 -324.47 458.209C-334.948 458.209 -346.778 459.56 -358.202 461.925C-404.036 471.588 -428.98 486.792 -443.582 513.889C-445.678 517.809 -446.692 519.025 -447.57 518.822C-458.387 515.646 -468.256 514.227 -479.41 514.227H-488.536L-492.052 511.93C-496.986 508.686 -504.693 505.172 -509.493 503.888C-515.036 502.469 -524.703 502.605 -529.435 504.226L-533.153 505.443L-529.435 505.51C-519.159 505.78 -508.141 508.821 -502.665 512.943C-500.907 514.295 -499.353 515.714 -499.217 516.119C-499.082 516.525 -500.705 517.538 -502.868 518.349C-515.509 523.147 -527.61 534.432 -534.167 547.473C-536.262 551.595 -539.575 559.839 -539.575 560.785C-539.575 561.055 -537.817 558.826 -535.586 555.852C-523.621 539.567 -508.884 529.093 -492.592 525.106C-485.494 523.35 -472.38 523.012 -465.214 524.431C-457.778 525.917 -450.207 528.553 -450.612 529.566C-450.748 530.039 -452.979 536.932 -455.412 544.905C-462.848 568.624 -469 584.706 -480.154 609.978L-485.562 622.142L-492.322 623.628C-501.11 625.52 -510.304 629.98 -515.644 634.778C-519.565 638.359 -524.703 645.454 -524.703 647.347C-524.703 647.887 -522.675 646.4 -520.174 644.103C-511.588 636.062 -503.409 631.872 -495.837 631.737C-493.606 631.67 -491.443 631.872 -491.173 632.143C-490.294 633.021 -509.222 669.105 -521.999 690.796C-526.731 698.77 -526.663 698.77 -517.402 687.553C-501.381 668.159 -482.79 641.738 -471.636 622.48C-466.228 613.154 -455.885 592.274 -453.046 584.976C-452.167 582.746 -451.288 580.652 -451.018 580.381C-450.41 579.638 -448.517 584.233 -447.3 589.639C-445.475 597.342 -446.286 615.452 -448.99 626.872C-449.328 628.358 -449.463 629.642 -449.396 629.777C-448.72 630.386 -444.055 621.263 -442.162 615.655C-440.202 609.911 -439.932 608.357 -439.661 599.099C-439.323 587.409 -440.337 579.571 -443.582 569.637L-445.475 563.623L-444.19 558.758C-439.458 541.594 -434.794 532.134 -424.789 519.228C-411.539 502.132 -393.828 490.239 -373.48 484.698L-368.545 483.346L-365.571 487.536C-351.848 506.929 -344.142 529.228 -342.451 553.96C-342.046 560.447 -342.113 560.853 -343.736 563.488C-346.17 567.34 -350.564 570.854 -354.958 572.543C-359.081 574.097 -368.951 574.638 -375.981 573.624L-379.699 573.151L-377.671 574.84C-375.103 577.003 -369.83 579.03 -364.422 579.841C-359.554 580.652 -351.645 579.503 -346.643 577.341C-342.857 575.651 -342.925 575.111 -345.223 586.531C-349.279 606.532 -358.405 627.412 -371.925 647.82C-377.266 655.861 -377.063 655.793 -366.315 645.454C-347.927 627.818 -335.827 605.181 -330.892 579.233C-329.405 571.191 -329.202 545.716 -330.554 538.418C-331.027 535.918 -331.23 533.621 -331.027 533.418C-330.013 532.404 -322.171 532.54 -317.642 533.621C-307.232 536.121 -298.308 541.662 -286.411 552.947C-282.49 556.731 -279.312 559.501 -279.312 559.163C-279.312 557.677 -284.856 547.811 -287.83 544.095C-296.415 533.283 -313.316 523.62 -329.607 520.038L-334.745 518.89L-335.759 515.511C-337.787 508.754 -339.545 497.604 -339.95 489.293L-340.356 480.778L-338.125 480.373C-333.123 479.359 -321.969 480.17 -310.747 482.333C-290.669 486.252 -263.629 496.591 -237.738 510.173C-225.773 516.389 -218.337 520.984 -207.25 528.755C-191.702 539.702 -177.776 547.811 -159.659 556.731C-145.463 563.691 -136.878 567.34 -104.227 580.584C-68.3986 595.045 -59.2049 599.032 -46.7664 605.248C-38.9923 609.168 -23.647 617.682 -22.633 618.695C-22.5654 618.763 -21.6866 625.318 -20.7402 633.291C-17.1573 663.159 -11.9521 695.661 -6.94965 718.771L-4.31323 730.867L-9.04523 742.084C-18.239 763.708 -23.1738 780.466 -25.9454 799.184C-27.2974 808.239 -27.5002 811.82 -27.5002 832.632C-27.4326 850.134 -27.1622 858.581 -26.2834 866.419C-24.999 877.569 -21.957 899.733 -21.3486 901.692C-21.0106 902.841 -17.4277 902.909 41.7904 902.909H104.524L94.3161 892.638C77.8215 876.082 64.707 856.486 57.6089 837.836C51.7277 822.429 49.5645 808.847 50.1053 790.399C50.5785 776.074 51.9981 765.6 57.0005 740.057C66.5999 691.269 82.0128 649.374 103.645 613.695C125.683 577.341 137.581 552.474 148.735 519.768C154.413 503.078 158.401 493.415 165.635 478.954C186.794 436.585 209.17 406.65 230.329 392.528C233.844 390.163 234.114 390.095 235.331 391.244C239.252 394.758 251.352 416.178 253.989 424.287C254.935 427.058 254.868 427.26 253.11 429.355C243.173 441.451 235.196 455.506 232.424 465.71C230.261 473.683 229.517 481.995 230.396 488.752C231.072 493.955 232.897 501.591 233.1 499.834C234.249 486.117 238.576 469.899 243.713 460.169C247.431 453.073 257.774 442.735 261.087 442.735C261.492 442.735 262.912 444.762 264.196 447.33C267.509 453.681 277.041 467.804 281.57 473.075C298.267 492.401 319.426 506.254 343.83 513.957C352.212 516.592 365.395 519.092 372.898 519.498L379.456 519.768L375.737 518.349C358.972 511.727 353.97 509.565 345.655 505.375C330.242 497.469 315.37 486.995 304.284 476.251C302.323 474.426 300.701 472.67 300.701 472.399C300.701 472.197 302.391 471.656 304.419 471.183C314.424 468.953 323.888 461.52 328.147 452.668C329.431 450.033 330.445 447.397 330.445 446.857C330.445 446.248 328.823 447.397 326.592 449.56C318.75 457.06 311.72 461.115 304.486 462.331C300.295 463.007 294.279 462.196 291.102 460.574C289.276 459.628 282.584 450.1 278.122 441.924C272.511 431.788 266.292 413.813 263.926 401.177C262.642 394.352 261.29 379.689 261.628 376.242L261.83 373.607L267.576 371.377C274.945 368.539 285.153 365.904 292.521 364.958C302.053 363.674 318.412 364.485 328.079 366.715C346.196 370.837 361.339 377.729 374.183 387.73C381.822 393.676 382.497 394.352 383.579 397.663C391.218 421.179 406.225 440.505 422.585 447.803C429.818 450.979 429.683 450.573 421.3 442.329C411.904 433.072 405.752 425.166 401.966 417.327C399.736 412.664 397.032 404.894 397.708 404.894C397.843 404.894 401.493 407.056 405.887 409.691C437.457 428.409 478.626 444.289 527.771 456.587C534.599 458.276 540.277 459.56 540.413 459.425C540.548 459.29 538.182 458.141 535.072 456.925C520.132 450.843 469.702 427.26 467.742 425.436C467.066 424.828 470.716 421.787 474.502 419.827C481.33 416.111 493.16 414.759 503.435 416.381C505.801 416.786 507.897 416.989 508.032 416.786C508.235 416.584 506.815 415.705 504.922 414.759C493.498 408.948 477.476 409.894 461.185 417.395L456.385 419.557L445.298 413.34C421.368 400.028 397.032 384.486 377.089 369.755C370.938 365.228 365.462 361.309 364.921 360.971C363.705 360.228 364.043 359.619 369.383 352.457C376.278 343.267 387.973 333.806 397.775 329.482C409.065 324.481 422.99 322.387 435.902 323.738C443.203 324.481 456.317 327.319 461.185 329.144C464.497 330.428 463.821 329.549 459.427 326.644C453.343 322.724 444.622 318.738 437.592 316.643C428.872 314.143 415.757 313.67 407.172 315.562C403.859 316.305 400.479 317.183 399.803 317.454C398.586 317.927 398.519 317.724 398.992 314.954C400.141 307.385 406.901 297.452 415.96 290.019C418.731 287.654 420.962 285.627 420.759 285.492C420.624 285.356 418.934 285.829 416.974 286.573C404.873 291.168 394.26 303.601 389.528 318.602C388.379 322.251 388.041 322.657 383.917 325.292C375.197 330.766 366.409 338.874 358.229 348.943L354.038 354.078L347.818 351.173C340.923 347.997 335.38 346.105 327.741 344.28C321.319 342.726 297.591 342.523 290.223 344.01C275.553 346.781 260.681 351.646 244.727 358.741C222.96 368.336 207.277 377.864 195.987 388.271C194.365 389.825 193.216 390.568 193.419 389.96C194.568 386.581 259.329 274.477 260.14 274.477C260.343 274.477 262.236 276.504 264.264 279.005C276.027 293.533 292.251 306.034 305.703 310.899C327.2 318.67 349.576 315.224 369.451 301.033C371.817 299.344 373.845 297.79 374.047 297.452C374.25 297.182 372.155 297.79 369.451 298.804C354.984 304.412 336.867 306.845 324.361 304.818C321.995 304.48 319.899 304.007 319.764 303.872C319.629 303.736 320.508 302.317 321.86 300.696C326.389 295.087 329.769 286.302 329.769 280.086C329.769 276.302 328.89 276.369 327.876 280.288C325.24 290.019 318.683 299.141 313.072 300.831C310.57 301.574 310.03 301.506 305.365 299.344C291.372 292.857 276.365 278.869 268.861 265.22L267.036 261.976L278.122 243.731C284.206 233.663 291.304 222.311 293.805 218.391C305.433 200.146 321.116 183.997 338.287 172.374C340.991 170.549 343.56 169.063 343.965 169.063C344.371 169.063 346.331 170.144 348.359 171.428C356.404 176.563 366.341 180.821 376.075 183.321C383.917 185.28 397.37 185.483 404.13 183.659C409.132 182.307 418.326 178.591 418.326 177.982C418.326 177.712 413.661 177.645 408.051 177.712C388.852 178.185 375.873 175.009 365.868 167.441C360.933 163.792 358.905 161.089 360.257 160.211C362.285 158.927 375.737 153.994 382.159 152.169C400.209 147.102 411.431 145.75 434.82 145.75H454.357L448.34 143.858C432.252 138.79 417.244 136.56 399.398 136.492C374.656 136.492 355.254 140.682 334.839 150.413C319.088 157.981 306.785 166.563 294.143 178.793L286.505 186.159V177.307C286.505 122.167 262.506 77.974 218.228 51.6204C211.738 47.7687 199.435 42.0926 195.244 41.079L193.554 40.606L195.244 41.8223C220.864 60.2698 241.009 81.9608 253.516 104.463C254.935 107.031 256.084 109.193 256.084 109.328C256.084 109.463 253.245 109.598 249.797 109.598C239.387 109.598 232.221 112.234 225.394 118.45C222.284 121.289 218.904 125.816 219.918 125.816C220.121 125.816 221.878 124.937 223.839 123.856C230.869 119.869 236.345 118.248 243.578 117.91C249.324 117.64 250.879 117.775 254.056 118.991C260.546 121.424 262.506 123.586 264.805 130.816C268.793 143.25 270.956 157.102 270.956 170.887V178.456L268.455 179.131C254.124 182.983 198.556 194.065 193.621 194.065C192.743 194.065 192.472 193.592 192.675 192.24C192.878 190.754 193.892 189.943 200.314 186.699C204.438 184.605 209.237 181.902 210.995 180.685C218.769 175.28 226.61 166.495 230.396 158.927C234.047 151.696 233.641 151.426 227.625 157.305C222.014 162.711 221.878 162.779 217.079 163.522C208.629 164.873 202.207 168.455 193.757 176.361L189.092 180.821H183.549C177.33 180.888 171.786 179.604 171.313 177.915C171.11 177.307 170.299 173.388 169.556 169.13C166.04 150.413 159.348 132.37 150.763 118.45L147.653 113.518L149.816 106.963C153.331 96.4891 154.143 91.3535 153.805 82.569C153.602 77.2307 153.061 73.379 152.047 70.3383C149.005 60.8104 140.352 50.6744 131.023 45.8091C128.522 44.4576 126.224 43.3765 126.021 43.3765C125.75 43.3765 126.697 44.3901 128.049 45.5388C136.093 52.634 143.867 64.7972 146.233 74.1223C148.261 82.0284 147.112 95.6107 143.8 103.314C143.056 105.003 142.38 106.287 142.245 106.152C130.347 91.6914 116.489 80.6769 99.5889 72.2303C93.3697 69.1219 88.7053 67.2299 78.2947 63.4457C77.4835 63.1755 77.5511 63.0403 78.4976 63.0403C79.9847 62.9727 79.9847 63.0403 77.6187 57.7696C72.8191 47.1606 63.8282 36.5516 55.9189 32.0242C51.8629 29.7267 44.1564 26.9562 42.6692 27.2941C42.196 27.4292 44.2916 29.1861 47.3337 31.2133C54.4993 35.8759 62.5438 43.9171 64.9098 48.7823C66.8026 52.5665 68.6954 59.9995 67.9518 60.7428C67.6815 60.9456 64.6394 60.7428 61.0566 60.2698C45.7112 58.3777 28.3379 62.9052 16.3726 71.96C8.46332 77.974 -1.33881 89.8669 -6.20605 99.3947L-7.69324 102.436L-3.29919 97.9081C14.8177 79.5958 39.4244 71.4194 64.1662 75.5414C71.8727 76.8253 81.6747 79.7985 87.2856 82.6365C96.6821 87.3667 109.999 97.9081 117.841 106.895C121.627 111.152 126.967 118.315 126.967 119.059C126.967 119.329 124.872 119.734 122.303 120.005C110.811 121.153 96.1413 126.897 86.88 133.992C84.3112 135.884 80.2552 139.939 77.754 142.844L73.2923 148.25L72.2783 146.155L71.3319 144.061L76.0639 139.533C81.4044 134.398 84.7844 129.465 87.0828 123.451C89.246 117.977 89.4489 106.49 87.4884 100.814C86.8124 98.7866 86.1364 97.0297 86.0688 96.8945C86.0012 96.827 84.2436 97.3676 82.1479 98.0433C65.383 103.855 54.0261 115.545 50.2405 130.884C48.4828 138.047 48.8209 154.872 50.7137 154.872C51.0517 154.872 54.3641 153.386 58.0146 151.561L64.5718 148.25L66.059 153.453L67.5463 158.656L65.7886 163.319C62.1382 172.982 60.1778 182.915 59.4341 195.214C59.1638 199.741 58.8257 203.66 58.623 203.863C58.3525 204.066 55.9865 204.674 53.2149 205.214C50.4433 205.755 46.1844 206.769 43.6832 207.512L39.2216 208.796L33.2051 204.404C26.8506 199.741 20.4962 195.552 15.291 192.511C13.4658 191.497 12.0461 190.416 12.0461 190.146C12.0461 189.875 12.9926 189.065 14.1418 188.389C17.8598 186.226 25.4987 178.456 29.2167 173.185C34.7599 165.279 37.7344 158.994 41.4524 146.899C41.9932 145.277 41.182 146.155 39.0188 149.602C33.9487 157.981 24.5522 168.522 16.981 174.604C12.9249 177.78 2.92004 183.929 1.77087 183.929C1.43286 183.929 1.23004 181.564 1.23004 178.658C1.23004 170.347 -1.74438 161.427 -5.80042 157.643C-7.22003 156.291 -7.22003 156.494 -5.32721 162.035C-4.31323 165.211 -3.23163 169.874 -3.02881 172.374C-2.62317 177.307 -3.7724 182.848 -5.05682 182.375C-5.53003 182.172 -8.97766 181.023 -12.7633 179.739L-19.6586 177.509L-20.7402 173.928C-22.9034 166.563 -27.4326 161.292 -33.3139 159.265C-37.6403 157.711 -37.6403 157.981 -33.3815 161.562C-29.0551 165.144 -25.8102 170.482 -25.8102 173.996C-25.8102 175.955 -25.8778 175.955 -28.3114 175.55C-39.9387 173.59 -51.7012 173.59 -61.7061 175.482L-66.2354 176.293L-66.641 172.847C-66.8438 170.955 -67.0466 168.252 -67.0466 166.833V164.265L-64.4778 164.806C-58.8669 166.022 -49.1324 164.603 -46.496 162.238C-45.6172 161.427 -49.9436 154.602 -53.9996 150.48C-57.5825 146.764 -63.1257 144.061 -66.979 144.061C-68.669 144.061 -68.9394 143.723 -69.345 141.493C-69.5478 140.141 -69.9534 132.776 -70.1562 125.14C-70.7646 104.192 -68.3986 87.9073 -62.0441 69.0543L-59.2049 60.6077L-53.6617 60.1346C-25.4722 57.7696 -4.58362 45.9443 5.21851 26.6183C6.02966 25.0641 6.50287 23.7802 6.23248 23.7802C6.02966 23.7802 4.27209 25.1317 2.37927 26.7535C-9.18048 36.484 -21.4838 43.2413 -32.4351 45.7416C-37.4375 46.8903 -45.3468 47.0255 -48.9972 46.0118L-51.566 45.3361L-49.4028 41.4844C-38.0459 21.2125 -15.8729 -1.42462 8.2605 -17.507C12.7222 -20.4127 15.8994 -22.8453 15.3586 -22.7778C14.8177 -22.7778 10.7617 -21.4263 6.30011 -19.7369ZM131.158 125.275C139.811 140.277 144.746 155.548 146.909 174.131C147.991 183.253 148.329 200.146 147.45 200.146C147.112 200.146 141.907 200.62 135.755 201.228C129.198 201.836 113.379 202.444 97.4257 202.647L70.1827 203.052V197.308C70.1827 194.133 70.3855 190.213 70.5883 188.524L70.9939 185.483L81.6072 185.078C101.347 184.334 112.771 180.348 122.235 170.82C127.238 165.887 131.294 157.981 132.51 151.021C132.916 148.318 133.119 145.953 132.916 145.75C132.713 145.48 130.618 145.074 128.252 144.736C111.757 142.304 95.3977 147.169 85.1224 157.44C81.3368 161.292 79.2411 163.995 75.9287 169.401C71.8051 176.09 75.3203 166.157 79.8495 158.251C88.7053 142.709 102.225 131.627 122.573 123.383C125.548 122.167 128.116 121.153 128.319 121.153C128.522 121.086 129.806 122.978 131.158 125.275ZM-351.916 140.885C-367.261 150.48 -378.145 165.144 -381.322 180.685L-382.133 184.402L-386.189 185.551L-390.245 186.632L-389.84 188.862C-389.299 191.294 -386.595 196.835 -384.702 199.471C-383.823 200.62 -383.147 203.255 -382.674 207.58C-382.268 211.093 -381.863 214.067 -381.727 214.202C-381.66 214.337 -381.322 212.648 -381.051 210.418C-380.443 204.809 -380.173 204.606 -376.725 206.904C-367.937 212.85 -352.862 214.54 -337.99 211.229L-332.785 210.08L-334.407 206.971C-341.302 193.322 -355.904 183.321 -369.019 183.253C-370.776 183.253 -371.925 182.915 -371.925 182.51C-371.925 180.888 -364.354 170.482 -360.028 166.09L-355.431 161.427L-354.687 165.211C-352.997 173.725 -345.899 179.266 -333.663 181.564C-330.824 182.104 -328.391 182.577 -328.255 182.577C-327.444 182.577 -328.188 173.996 -329.269 170.414C-331.838 162.238 -335.962 158.319 -345.223 155.21C-346.372 154.872 -345.899 154.399 -342.519 152.44C-336.976 149.264 -325.754 144.939 -319.873 143.723C-317.236 143.182 -314.938 142.709 -314.735 142.709C-314.6 142.709 -315.479 144.263 -316.831 146.155C-318.724 148.994 -319.197 150.21 -319.197 152.98C-319.197 155.886 -316.966 162.981 -316.02 162.981C-315.817 162.981 -314.465 162.305 -312.978 161.495C-308.043 158.656 -306.15 153.453 -307.975 147.237C-309.395 142.371 -309.327 142.034 -307.434 142.034C-306.353 142.034 -305.271 142.777 -304.325 144.061C-302.635 146.426 -298.173 149.129 -295.063 149.737C-291.819 150.277 -286.343 149.061 -281.543 146.764L-277.352 144.669L-272.958 145.818C-270.524 146.426 -266.604 147.575 -264.305 148.453L-260.046 150.007L-259.708 156.089C-259.506 159.467 -259.1 162.441 -258.83 162.711C-258.086 163.522 -251.123 160.954 -248.081 158.792C-246.594 157.711 -245.107 157.035 -244.633 157.373C-244.16 157.643 -242.2 158.859 -240.172 160.143L-236.521 162.441L-241.862 165.279C-249.703 169.401 -254.097 172.509 -260.52 178.523L-266.333 183.929L-267.55 182.037C-269.24 179.537 -269.578 172.847 -268.294 168.455C-267.347 165.279 -267.347 165.008 -268.361 165.819C-268.902 166.292 -270.119 168.184 -270.93 170.076C-272.89 174.266 -273.026 179.469 -271.2 184.605L-269.916 188.321L-271.403 190.348C-285.532 209.742 -296.348 237.852 -300.607 266.098L-301.756 273.599L-309.665 274.342C-319.467 275.356 -331.568 277.856 -340.221 280.694L-346.913 282.856L-348.738 281.37C-351.645 279.005 -358.338 275.896 -361.515 275.423C-363.408 275.153 -365.706 275.423 -368.343 276.234L-372.263 277.383L-366.855 278.194C-360.366 279.207 -357.324 280.424 -354.822 283.059L-352.93 285.086L-358.878 288.397C-362.123 290.222 -367.329 293.6 -370.371 295.898L-375.981 300.02L-380.24 294.546C-399.777 269.274 -408.362 246.84 -408.43 220.824C-408.43 206.093 -405.928 193.322 -400.453 180.685C-392.949 163.319 -376.049 147.777 -358.405 142.169C-355.972 141.358 -353.538 140.614 -352.997 140.412C-351.172 139.871 -350.631 140.074 -351.916 140.885ZM220.256 163.995C220.256 164.671 210.386 171.631 206.398 173.725L202.342 175.955L205.316 173.252C207.006 171.698 210.927 168.995 214.104 167.103C219.986 163.522 220.256 163.454 220.256 163.995ZM-226.584 170.144C-217.526 177.712 -210.766 185.416 -207.791 191.362C-205.831 195.349 -205.019 196.43 -203.938 196.295C-202.991 196.16 -201.842 197.241 -199.949 200.011C-160.133 257.651 -138.974 296.101 -73.6038 429.22C-67.7226 441.18 -61.3681 451.587 -54.0673 461.182C-51.8364 464.088 -50.2141 466.656 -50.4168 466.858C-51.0928 467.534 -63.3286 461.25 -69.8858 456.925C-88.3408 444.627 -108.756 424.355 -127.482 399.555C-132.822 392.595 -151.547 365.16 -151.547 364.417C-151.547 364.147 -149.993 363.471 -148.167 362.795C-143.841 361.241 -143.773 359.282 -148.032 354.754L-149.722 352.93L-147.965 345.632C-143.503 327.387 -144.382 310.561 -150.601 296.979C-152.697 292.384 -157.564 284.343 -157.969 284.748C-158.105 284.883 -157.496 287.924 -156.617 291.506C-155.739 295.087 -154.657 300.966 -154.251 304.547C-153.102 313.197 -153.711 328.333 -155.333 333.266L-156.55 336.982L-157.023 332.725C-157.564 328.603 -161.755 318.4 -162.972 318.4C-164.391 318.4 -170.678 325.495 -172.098 328.603L-173.585 332.05L-179.061 324.346C-182.035 320.089 -185.753 315.224 -187.308 313.399C-190.418 309.818 -190.418 309.885 -189.066 307.588C-188.525 306.642 -188.119 305.561 -188.052 305.088C-188.052 304.277 -191.702 302.723 -196.502 301.574C-198.192 301.101 -201.166 299.209 -204.411 296.574C-215.7 287.113 -227.666 280.829 -238.617 278.531C-240.375 278.126 -242.47 277.721 -243.281 277.518C-244.16 277.315 -244.836 276.707 -244.836 276.166C-244.836 275.626 -245.107 275.153 -245.512 275.153C-245.85 275.153 -246.188 275.558 -246.188 276.031C-246.188 276.707 -247.811 276.639 -254.097 275.693C-258.492 275.085 -267.956 274.207 -275.054 273.734C-282.219 273.261 -288.101 272.585 -288.101 272.247C-288.101 271.909 -286.884 269.274 -285.397 266.436C-280.124 256.367 -268.158 243.461 -255.855 234.676L-249.906 230.352L-253.557 230.825C-263.021 232.041 -274.378 237.582 -282.422 244.948C-284.788 247.11 -286.749 248.664 -286.749 248.326C-286.749 246.569 -282.76 234.406 -279.515 226.162C-268.902 199.403 -255.314 180.145 -238.482 168.32C-235.913 166.495 -233.547 165.008 -233.276 165.008C-232.938 165.008 -229.964 167.306 -226.584 170.144ZM270.618 184.064C269.943 191.497 268.388 200.417 266.495 207.58C264.94 213.594 264.196 214.878 254.462 229.879C228.706 269.342 217.822 288.938 178.614 365.904C167.866 387.054 159.01 403.948 158.942 403.407C158.807 402.934 160.091 386.446 161.646 366.782L164.486 330.968L170.705 327.252C174.152 325.157 177.262 323.13 177.735 322.657C178.141 322.251 175.572 322.792 171.922 323.941C168.339 325.022 165.297 325.833 165.162 325.698C165.026 325.563 165.635 315.427 166.514 303.196C167.392 290.897 168.609 272.991 169.218 263.328C170.772 237.042 170.367 239.069 174.152 237.852C177.127 236.839 177.194 236.771 175.166 236.704C170.772 236.569 170.84 236.704 171.246 227.243C171.448 222.581 171.786 217.175 171.989 215.283L172.327 211.837L180.574 209.945C199.976 205.552 233.438 194.538 257.774 184.605C264.872 181.699 270.686 179.334 270.821 179.266C270.956 179.199 270.821 181.429 270.618 184.064ZM-50.1464 180.55C-40.9528 181.496 -34.1251 182.983 -24.4582 186.091C-17.0222 188.524 -16.2109 188.929 -17.6981 189.47C-18.6445 189.875 -24.1202 190.01 -30.2042 189.808C-39.4655 189.537 -42.1696 189.2 -48.7944 187.443C-53.0533 186.362 -58.6641 184.402 -61.3005 183.186L-66.0326 180.956L-63.6666 180.55C-60.1513 179.807 -57.2445 179.807 -50.1464 180.55ZM181.048 194.741C181.048 195.619 178.546 196.565 175.572 196.835C172.124 197.173 172.462 195.889 176.18 195.011C180.439 193.997 181.048 193.93 181.048 194.741ZM-58.9345 196.43C-40.3444 201.43 -20.3345 201.971 -5.86804 197.781L-0.459961 196.16L6.63806 200.282C10.5589 202.579 16.8458 206.566 20.699 209.134L27.6619 213.864L23.2003 216.499C20.2258 218.189 17.8598 219.067 16.2374 219.067C9.88293 219.135 -3.7724 223.459 -8.36926 226.838C-9.85645 227.987 -9.85645 227.987 -6.74683 227.581C-4.9892 227.379 -1.13599 227.379 1.83844 227.649L7.24652 228.054L0.0132446 235.622L-7.15247 243.258L-8.30164 241.434C-9.92407 238.866 -11.6817 237.447 -14.7913 236.366L-17.5629 235.42L-17.9009 237.582C-18.5093 241.434 -17.2249 246.164 -14.8589 248.597L-12.6957 250.826L-16.549 256.367C-22.633 265.355 -29.5958 277.45 -34.8011 287.992C-37.4375 293.398 -40.6147 299.006 -41.8315 300.56C-44.1976 303.466 -44.5356 304.615 -43.3188 305.02C-42.778 305.223 -43.3864 307.791 -44.9412 312.724C-46.2932 316.778 -47.7128 322.184 -48.186 324.684C-48.6592 327.184 -49.1324 329.076 -49.2676 328.941C-49.4028 328.806 -50.6873 318.94 -52.0392 307.047L-54.6081 285.424L-49.7408 285.154C-45.6172 284.951 -44.3328 284.613 -41.8992 282.924C-39.0599 280.897 -35.9503 276.099 -35.9503 273.666C-35.9503 272.18 -37.7079 271.234 -42.0344 270.423C-46.158 269.612 -50.7548 270.49 -53.6617 272.518C-54.7433 273.328 -55.6897 273.869 -55.8249 273.734C-55.9601 273.599 -57.7177 257.178 -59.8809 237.312C-61.9766 217.445 -63.8693 199.876 -64.0721 198.254C-64.5453 194.943 -64.4778 194.943 -58.9345 196.43ZM147.247 218.594C147.247 219.878 147.045 223.257 146.774 226.095C146.369 231.298 146.369 231.298 144.611 230.892C141.366 230.149 129.333 223.865 126.629 221.5L123.925 219.202L127.643 218.797C130.956 218.459 145.49 216.634 146.774 216.432C147.045 216.432 147.247 217.378 147.247 218.594ZM101.752 219.472C103.172 219.878 103.172 219.945 100.941 222.986C97.8989 227.379 96.2089 230.825 94.6541 236.298C91.8824 245.826 92.1529 254.205 95.6681 264.003C97.3581 268.666 102.023 277.383 103.307 278.194C103.983 278.599 111.013 270.49 114.664 265.017C121.086 255.286 123.858 247.245 123.858 237.852C123.925 234.203 123.925 231.23 123.925 231.23C123.925 231.23 126.359 232.311 129.333 233.595C132.308 234.879 137.242 236.569 140.352 237.379L146.031 238.934L145.557 245.353C144.341 263.125 141.163 290.762 137.04 320.359C135.552 330.428 135.35 331.441 133.93 331.982C132.105 332.658 116.827 333.604 116.827 333.063C116.827 332.86 118.179 330.766 119.802 328.401C126.629 318.535 130.82 307.115 131.429 296.506L131.767 290.357L130.618 292.722C129.942 294.006 127.846 298.533 125.818 302.79C120.004 315.156 112.906 325.022 105.741 330.698C102.158 333.536 103.172 333.401 93.5049 332.185L90.4628 331.847V328.401C90.4628 325.9 91.0037 324.076 92.4233 321.508C96.4117 314.413 97.8313 305.764 96.2765 298.195C94.9245 291.708 94.1133 290.965 93.5725 295.56C93.3021 297.52 92.6937 300.696 92.1529 302.52L91.274 305.899L91.2065 301.979C90.936 286.978 86.7448 267.787 80.9988 255.151C77.0103 246.637 72.8191 240.623 64.8422 232.379C60.989 228.392 57.947 225.013 58.0822 224.878C58.6906 224.27 69.7095 221.567 75.9287 220.419C82.5536 219.27 98.6425 218.662 101.752 219.472ZM46.3873 236.771C57.2034 242.177 64.2338 249.61 68.087 259.611C70.4531 265.76 73.3599 277.788 73.9683 283.802L74.3739 287.721L71.4671 288.87C66.2618 290.83 61.2594 291.641 54.2965 291.641C41.5876 291.573 31.3799 286.573 20.5638 275.018C14.8854 269.071 14.7502 268.936 15.967 271.842C17.8598 276.234 21.3074 281.843 24.3494 285.424C27.9999 289.816 36.1119 295.087 41.9932 296.911C48.9561 299.141 60.5834 299.006 69.2363 296.641L75.4555 294.952L75.8611 301.101C76.0639 304.48 76.3344 311.305 76.4019 316.305L76.6047 325.36L74.2387 326.238C70.5207 327.59 68.5602 327.319 61.5298 324.752C37.464 315.832 14.615 299.006 -1.06836 278.667L-4.17798 274.545L0.621643 267.314C8.59851 255.421 20.7666 243.664 33.2051 235.96C38.14 232.852 38.478 232.852 46.3873 236.771ZM-282.084 284.613H-278.298L-284.045 288.262C-290.331 292.316 -290.805 292.249 -290.805 287.586C-290.805 284.208 -290.331 283.735 -287.83 284.208C-286.749 284.41 -284.18 284.613 -282.084 284.613ZM-302.702 285.694C-302.5 286.302 -302.297 287.992 -302.297 289.546C-302.297 291.1 -301.959 294.682 -301.553 297.52L-300.742 302.655L-302.77 305.628C-303.919 307.25 -305.339 309.48 -306.015 310.561L-307.232 312.521L-309.733 307.183C-312.978 300.493 -318.318 294.546 -324.199 291.1C-326.633 289.681 -328.661 288.397 -328.661 288.33C-328.661 287.857 -314.262 285.762 -303.919 284.681C-303.446 284.681 -302.905 285.086 -302.702 285.694ZM-248.554 292.181C-248.757 293.06 -249.974 295.83 -251.258 298.466C-255.585 307.453 -263.967 314.683 -273.904 318.129C-276.608 319.076 -278.839 319.751 -278.975 319.616C-279.38 319.211 -285.261 307.115 -286.343 304.682L-287.425 302.115L-281.138 299.141C-269.916 293.803 -259.844 290.965 -251.731 290.762C-248.284 290.695 -248.149 290.762 -248.554 292.181ZM-235.981 292.992C-231.046 294.749 -218.878 302.317 -219.892 303.061C-220.027 303.196 -221.582 304.074 -223.272 305.088C-226.719 307.047 -230.978 311.372 -233.75 315.764C-235.44 318.467 -239.631 327.928 -239.293 328.198C-239.158 328.198 -238.144 328.874 -237.062 329.549C-235.913 330.225 -232.668 331.644 -229.761 332.59L-224.421 334.415L-228.004 335.969C-233.344 338.266 -241.524 339.483 -247.878 339.01C-252.881 338.672 -260.249 337.388 -263.426 336.307L-264.778 335.834L-263.426 336.982C-256.261 342.929 -240.239 346.24 -230.64 343.807C-224.826 342.321 -218.878 339.415 -214.754 336.036C-212.861 334.482 -210.022 332.252 -208.332 331.104C-206.709 329.887 -203.938 327.59 -202.18 326.036L-199.071 323.13L-194.744 328.401C-189.133 335.023 -181.765 344.821 -182.103 345.024C-182.17 345.159 -184.063 345.767 -186.226 346.443C-188.457 347.118 -190.823 348.2 -191.567 348.808C-192.919 349.889 -192.919 349.956 -191.77 351.713C-190.215 354.146 -185.145 357.39 -182.103 357.863C-180.751 358.133 -178.52 357.998 -177.236 357.592C-175.951 357.254 -174.667 356.917 -174.396 356.917C-174.194 356.917 -172.842 358.741 -171.422 361.039L-168.921 365.16L-169.394 371.377C-169.664 374.756 -170.34 379.486 -170.881 381.919C-171.828 386.243 -175.681 394.149 -177.033 394.555C-177.371 394.69 -179.399 391.244 -181.562 386.852C-185.28 379.148 -185.415 379.013 -185.01 382.257C-184.739 384.081 -184.401 386.378 -184.198 387.325C-183.86 388.541 -186.024 386.716 -191.837 380.905C-200.49 372.121 -209.481 365.025 -218.742 359.619C-230.167 352.862 -230.167 353.335 -218.607 364.823C-212.726 370.701 -206.033 377.864 -203.735 380.702C-187.781 400.434 -177.033 423.003 -172.977 444.897L-171.963 450.168H-174.599C-177.168 450.168 -177.236 450.1 -182.711 441.856C-196.096 421.922 -218.472 394.555 -245.58 365.025C-253.489 356.444 -257.342 351.849 -263.494 343.402C-268.158 337.118 -275.256 326.373 -275.256 325.698C-275.256 325.495 -273.499 324.617 -271.336 323.806C-261.736 319.954 -253.151 313.534 -249.027 307.115C-247.135 304.074 -244.633 297.52 -243.822 293.195C-243.349 290.897 -241.997 290.83 -235.981 292.992ZM-344.615 306.101C-341.505 312.183 -335.286 317.724 -327.241 321.711C-320.887 324.819 -309.395 328.536 -306.082 328.536C-304.933 328.536 -304.866 328.13 -305.271 323.603C-305.474 320.968 -305.88 317.927 -306.082 316.981C-306.42 315.494 -305.947 314.886 -302.635 312.386C-300.539 310.764 -298.714 309.615 -298.579 309.75C-298.443 309.818 -297.429 312.251 -296.348 315.021C-291.481 327.049 -286.208 335.428 -272.62 352.727C-267.55 359.146 -263.359 364.62 -263.224 364.89C-262.886 366.039 -267.888 367.188 -274.31 367.526C-286.343 368.134 -298.714 364.282 -313.992 355.092C-316.155 353.808 -318.048 352.862 -318.183 352.997C-318.588 353.403 -312.64 360.295 -309.733 362.795C-305.542 366.444 -298.917 370.364 -293.306 372.526C-283.842 376.175 -277.555 377.256 -264.44 377.526L-252.61 377.797L-242.267 390.5C-214.754 424.422 -198.53 453.006 -191.702 479.765C-190.08 485.982 -188.795 495.509 -189.607 494.766C-189.809 494.563 -192.04 491.658 -194.609 488.211C-201.301 479.224 -208.805 470.845 -216.647 463.615C-272.958 411.583 -327.647 357.052 -354.417 326.171C-367.599 310.967 -372.263 304.818 -371.182 304.142C-368.343 302.317 -358.743 297.587 -354.011 295.695L-348.603 293.533L-347.522 298.06C-346.981 300.493 -345.629 304.142 -344.615 306.101ZM-3.7724 307.858C-1.60919 308.737 1.90607 310.156 3.93408 311.102L7.6521 312.791L3.93408 314.548C1.90607 315.494 -1.60919 317.792 -3.84003 319.549C-7.82843 322.792 -15.6701 332.185 -15.6701 333.739C-15.6701 334.888 -7.55804 338.942 0.0808105 341.51C5.62408 343.469 7.11127 343.672 14.1418 343.74H21.9835L23.0651 350.565C24.9579 362.728 29.5547 373.877 36.1796 382.527L39.6272 387.122L38.7484 391.446C37.3964 397.934 36.3824 408.07 36.3824 415.3V421.652L33.5432 421.044C25.7015 419.354 16.1698 411.989 9.07172 402.191C6.09729 398.069 5.9621 397.934 6.36768 400.163C6.97607 404.015 11.0997 411.718 14.4122 415.57C18.333 419.962 24.3494 424.287 31.5827 427.868C34.5571 429.423 37.0583 430.842 37.0583 431.112C37.0583 432.463 38.5456 440.978 39.492 445.1C44.2241 465.845 54.0938 485.914 68.6279 504.564C75.7935 513.754 89.3812 528.215 97.4933 535.242C101.414 538.689 104.659 541.662 104.659 541.797C104.659 542 101.685 546.595 98.0341 552.068C88.2321 566.596 74.5091 588.22 63.4226 606.127C57.1357 616.398 53.4853 621.736 52.8769 621.534C52.4037 621.331 49.8349 619.641 47.1985 617.682C44.562 615.79 37.5992 611.33 31.7855 607.884C25.9719 604.437 19.4822 600.586 17.4542 599.302L13.7361 597.072L12.1813 577.814C7.6521 522.674 3.05524 496.388 -9.11285 457.263C-16.2785 434.22 -20.3345 414.084 -23.4442 385.703L-23.9174 381.716L-20.8754 384.419C-17.2925 387.527 -13.9801 388.676 -8.84247 388.676C-3.56958 388.676 -3.23163 388.271 -3.70483 383C-4.24561 377.526 -5.93561 373.54 -9.31567 369.823C-12.3577 366.444 -15.6025 364.62 -20.9429 363.404L-24.7962 362.525L-24.661 351.443C-24.5258 339.347 -23.1062 326.711 -20.9429 317.656L-19.5234 311.845L-16.0081 310.359C-14.0477 309.548 -11.8845 308.264 -11.2761 307.52C-9.72125 305.831 -8.63965 305.899 -3.7724 307.858ZM45.7789 334.212C52.3361 337.185 63.017 340.834 69.5067 342.388C72.2783 343.064 74.7795 343.74 75.0499 344.01C75.3203 344.213 74.7795 351.376 73.9007 359.957C71.1291 386.581 70.0475 408.137 69.9123 435.639C69.9123 449.762 70.1151 465.845 70.3855 471.453C70.7911 477.94 70.7234 481.319 70.3179 480.914C68.8306 479.359 63.2198 468.953 60.5158 462.669C55.0401 450.1 51.5925 437.734 49.4969 422.8C48.0096 412.8 47.8745 389.014 49.1589 378.202C49.9701 371.445 52.8093 354.484 53.6881 351.173C53.8909 350.43 53.2149 351.173 52.2009 352.862C49.9025 356.781 45.1028 368.066 43.1424 374.148C42.3312 376.716 41.52 379.351 41.3172 379.891C40.9116 381.175 37.0583 372.053 34.6248 363.944C33.0023 358.741 32.7995 356.714 32.7319 348.74L32.6643 339.618L36.0444 335.766C37.9372 333.671 39.6948 331.982 40.0328 331.982C40.3708 331.914 42.9396 332.928 45.7789 334.212ZM133.457 344.551C133.254 345.632 131.091 358.268 128.725 372.796C124.466 398.204 119.261 428.139 114.461 454.222C111.689 469.291 110.743 479.021 110.743 492.063C110.675 503.348 110.743 503.348 105.673 493.415C92.4908 467.264 86.88 429.49 88.5024 377.864C89.1785 357.187 89.246 356.579 90.6656 355.43C91.4769 354.822 94.6541 352.457 97.7637 350.294L103.375 346.308L111.284 345.835C115.61 345.632 121.965 344.821 125.277 344.145C133.862 342.388 133.93 342.388 133.457 344.551ZM-160.538 379.689L-155.13 388.676L-158.24 391.852C-161.823 395.568 -162.904 398.474 -163.513 405.502L-163.918 410.435L-160.944 409.962C-156.55 409.286 -152.223 407.191 -149.384 404.421C-147.965 403.069 -146.748 402.055 -146.613 402.258C-146.477 402.393 -140.866 410.705 -134.174 420.773C-120.383 441.383 -114.908 448.816 -102.604 463.682C-97.9401 469.358 -94.1544 474.156 -94.3572 474.291C-94.898 474.9 -112.677 465.98 -118.761 462.061C-139.785 448.478 -156.685 430.234 -172.301 404.353L-173.653 402.123L-171.084 396.92C-167.501 389.622 -166.149 384.081 -166.149 376.716C-166.149 373.269 -166.081 370.566 -166.014 370.634C-165.946 370.701 -163.445 374.823 -160.538 379.689ZM-158.105 446.857C-158.578 447.33 -158.916 447.059 -159.119 445.775C-159.457 444.086 -159.389 444.086 -158.443 445.032C-157.631 445.775 -157.564 446.316 -158.105 446.857ZM-144.855 459.695C-125.589 478.008 -101.388 490.306 -71.7786 496.861C-60.9625 499.226 -46.7664 501.456 -40.0063 501.929C-36.4911 502.132 -32.9759 502.402 -32.1647 502.537C-30.8126 502.807 -30.7451 503.483 -29.9338 521.255C-29.4606 531.391 -28.5142 547.879 -27.7706 557.879C-27.027 567.88 -26.5538 576.124 -26.689 576.259C-26.8242 576.395 -33.2463 573.624 -40.9528 570.11C-74.8207 554.568 -114.232 538.756 -159.524 522.471C-163.242 521.12 -163.783 520.714 -163.445 519.498C-163.175 518.687 -162.296 514.43 -161.417 509.97C-158.713 496.658 -157.429 483.008 -157.496 467.939C-157.496 454.492 -157.496 454.29 -156.077 454.019C-152.021 453.208 -151.412 453.546 -144.855 459.695ZM-171.152 457.398C-171.152 459.155 -171.219 459.155 -172.166 457.871C-173.45 456.182 -173.45 455.574 -172.166 455.574C-171.49 455.574 -171.152 456.249 -171.152 457.398Z" fill="#E8DAC4"/>
<path d="M197.345 215.486C191.397 220.148 183.555 232.582 181.392 240.69C179.972 246.029 180.107 256.3 181.662 262.449C183.014 267.652 187.273 276.842 189.707 279.883L191.059 281.572L194.033 278.261C209.108 261.233 214.651 243.934 209.784 229.406C207.959 224 204.714 218.594 201.537 215.553L199.644 213.729L197.345 215.486Z" fill="#E8DAC4"/>
<path d="M14.076 371.175C4.27393 373.134 -1.33692 379.689 0.217894 387.73L0.623498 390.163L3.80073 389.69C11.372 388.676 16.442 384.149 17.8617 377.189C18.6053 373.337 18.4701 370.364 17.5237 370.499C17.3208 370.566 15.766 370.837 14.076 371.175Z" fill="#E8DAC4"/>
<path d="M6.63755 431.991C4.94753 432.734 2.91951 434.018 2.10831 434.761L0.621094 436.18L2.58151 439.018C7.17835 445.64 12.654 448.546 19.7521 448.005C24.5517 447.6 31.6498 444.762 31.6498 443.208C31.6498 442.667 29.8922 440.37 27.6613 438.072C20.8337 430.977 13.5328 428.882 6.63755 431.991Z" fill="#E8DAC4"/>
<path d="M130.687 -13.5877C132.106 -3.38412 135.622 7.56275 139.475 13.6443C142.585 18.5772 147.925 23.3749 152.995 25.8751C157.592 28.105 157.93 28.1726 166.177 28.1726C170.842 28.1726 175.506 27.9023 176.588 27.632L178.548 27.0914L178.142 21.5504C176.317 -2.84353 161.107 -16.6285 135.892 -16.7636H130.281L130.687 -13.5877Z" fill="#E8DAC4"/>
<path d="M4.40832 -4.53284C4.88152 -0.0054245 7.24754 7.42764 9.00516 10.2657C11.1684 13.6444 15.1568 16.8879 18.334 17.7663C19.7537 18.1042 22.7957 18.3745 25.0941 18.2394L29.2853 18.0366L29.2177 13.1714C29.2177 8.98182 28.8797 7.63036 26.8517 3.77868C23.2689 -3.24894 18.1312 -6.28974 8.53195 -7.10062L4.07031 -7.50606L4.40832 -4.53284Z" fill="#E8DAC4"/>
<path d="M208.222 -4.60069C197.473 -1.76262 189.361 3.91354 186.319 10.806C184.562 14.6577 183.953 22.9016 185.102 27.0912L185.846 29.9968L189.699 29.5914C202.205 28.1723 210.994 21.9556 214.847 11.8196C215.928 9.04911 216.469 5.80559 216.74 0.940315L217.078 -5.95216L215.117 -5.88459C214.036 -5.88459 210.926 -5.27642 208.222 -4.60069Z" fill="#E8DAC4"/>
<path d="M47.2013 1.07579C37.1964 3.30571 31.856 9.72517 33.4108 17.5637C33.9516 20.0639 35.4388 20.3342 40.7116 18.78C45.0381 17.4961 47.9449 15.131 49.8377 11.3469C51.3925 8.17099 52.6093 0.0621948 51.5277 0.19734C51.1897 0.19734 49.2293 0.602781 47.2013 1.07579Z" fill="#E8DAC4"/>
<path d="M230.063 9.9276C224.385 17.7661 223.641 24.7937 227.697 32.4295C228.847 34.5918 230.942 37.5651 232.362 38.9165L234.931 41.4167L236.688 39.1193C240.609 33.9837 242.772 28.5103 243.11 23.1044C243.313 18.5094 243.178 17.6985 241.42 14.3199C239.73 11.1439 234.728 6.21107 233.241 6.21107C232.97 6.21107 231.551 7.9004 230.063 9.9276Z" fill="#E8DAC4"/>
<path d="M26.5812 23.0369C24.6883 23.7127 22.5251 24.5911 21.8491 24.9966C19.7535 26.1453 16.3735 29.997 15.4271 32.4296C14.5483 34.7271 14.8187 41.0114 15.9003 42.0926C16.7791 42.9711 22.9983 41.2142 26.108 39.1194C30.164 36.484 33.0708 28.8482 31.9892 23.7802C31.4484 21.4152 31.1104 21.4152 26.5812 23.0369Z" fill="#E8DAC4"/>
<path d="M177.532 34.592C162.592 39.2545 153.668 47.9039 152.857 58.5805C152.519 62.5673 154.006 70.6761 155.291 71.96C156.102 72.7709 163.809 70.7437 168.608 68.3786C177.261 64.1215 182.399 56.2154 182.94 46.3497C183.278 40.5384 182.602 33.1729 181.858 33.3081C181.588 33.3081 179.627 33.9162 177.532 34.592Z" fill="#E8DAC4"/>
<path d="M267.713 38.1057C260.142 48.1065 259.128 57.0938 264.468 66.6216C265.753 68.9191 268.187 72.0951 269.944 73.7844L273.054 76.8252L274.744 74.798C275.69 73.6493 277.448 70.9463 278.732 68.7164C284.884 57.7695 284.884 48.039 278.665 40.7411C276.772 38.4436 271.905 34.5919 270.958 34.5919C270.688 34.5919 269.201 36.2136 267.713 38.1057Z" fill="#E8DAC4"/>
<path d="M316.247 65.5405C300.699 77.974 292.316 92.1644 290.559 109.058C289.342 120.748 291.64 132.641 297.319 144.601L300.699 151.629L302.659 150.21C303.741 149.399 307.729 145.547 311.447 141.628C330.781 121.221 337.744 101.76 332.742 82.4339C330.984 75.6089 327.874 69.5949 322.804 63.3782L321.249 61.4861L316.247 65.5405Z" fill="#E8DAC4"/>
<path d="M383.848 68.9191C373.37 74.0547 366.339 81.4877 363.162 90.6777C361.404 95.7457 361.404 106.895 363.162 112.639C364.379 116.491 366.745 122.437 367.286 122.978C367.421 123.113 369.314 122.234 371.477 121.018C389.932 110.544 398.652 97.0296 396.151 82.5689C395.069 76.217 390.405 66.9595 388.377 67.0271C387.904 67.0946 385.876 67.9055 383.848 68.9191Z" fill="#E8DAC4"/>
<path d="M418.935 90.813C416.907 95.2053 416.637 96.354 416.637 101.49C416.637 106.085 416.907 107.841 418.192 110.409C420.084 114.261 425.628 119.937 429.143 121.762L431.779 123.113L433.199 119.937C436.917 111.558 437.593 102.706 434.956 97.0973C432.793 92.4348 427.588 87.9074 422.653 86.3532C421.436 85.9477 420.963 86.5559 418.935 90.813Z" fill="#E8DAC4"/>
<path d="M28.0689 95.3404C26.0409 97.3 23.4721 100.543 22.1877 102.976C19.2132 108.585 18.6048 115.95 20.768 121.897C21.9848 125.478 26.3113 132.776 27.5957 133.587C28.6097 134.195 36.857 124.397 39.223 119.869C41.0482 116.22 41.5214 114.464 41.7242 110.206C41.927 105.747 41.6566 104.395 40.237 101.354C38.4118 97.3675 34.0854 92.0293 32.6657 92.0293C32.1925 92.0293 30.0969 93.5159 28.0689 95.3404Z" fill="#E8DAC4"/>
<path d="M470.31 105.341C460.576 116.086 458.751 127.303 464.7 138.723C465.984 141.155 468.62 144.804 470.581 146.764L474.028 150.345L475.989 148.048C479.031 144.399 483.019 137.304 484.507 132.776C488.022 122.235 484.845 111.693 476.259 105.477C472.947 103.044 472.406 103.044 470.31 105.341Z" fill="#E8DAC4"/>
<path d="M-14.6557 110.747C-14.1825 113.45 -11.6137 119.329 -10.1265 121.153C-8.09844 123.654 -4.58321 125.14 -0.797576 125.14C4.27247 125.14 4.61047 124.802 3.86687 120.951C2.37965 112.842 -3.096 108.247 -11.3433 108.247H-15.1289L-14.6557 110.747Z" fill="#E8DAC4"/>
<path d="M196.12 134.533C185.574 138.385 179.963 146.155 179.22 158.048C178.747 164.468 178.679 164.468 184.425 162.103C195.309 157.643 202.001 149.669 202.204 141.087C202.339 136.29 201.663 133.249 200.446 133.249C200.041 133.317 198.08 133.857 196.12 134.533Z" fill="#E8DAC4"/>
<path d="M498.433 140.074C496.27 140.817 492.89 142.507 490.93 143.79C487.482 146.088 481.195 152.237 481.195 153.318C481.195 154.67 490.321 163.725 494.513 166.63C501.678 171.496 505.802 172.779 514.658 172.779C521.012 172.779 522.77 172.509 527.029 170.955C531.761 169.266 539.602 164.671 543.726 161.292L545.754 159.67L543.388 157.17C536.898 150.413 526.353 143.115 519.39 140.547C513.373 138.385 503.774 138.182 498.433 140.074Z" fill="#E8DAC4"/>
<path d="M468.351 160.076C456.656 172.509 456.792 186.362 468.622 201.092C469.163 201.768 470.109 202.174 470.65 201.971C472.407 201.295 479.708 191.565 481.939 186.902C483.629 183.321 484.102 181.226 484.373 176.901C484.846 169.468 483.156 164.873 477.883 159.467C475.72 157.305 473.692 155.548 473.286 155.548C472.881 155.548 470.65 157.575 468.351 160.076Z" fill="#E8DAC4"/>
<path d="M342.276 232.311C326.999 242.65 322.807 255.489 330.919 267.179L332.677 269.747L335.989 267.923C343.561 263.801 348.834 256.773 349.78 249.475C350.321 245.421 349.104 239.272 346.806 234.474L344.98 230.487L342.276 232.311Z" fill="#E8DAC4"/>
<path d="M386.624 262.314C380.472 264.544 376.552 267.652 374.253 272.044C373.171 274.139 372.969 275.693 373.171 279.613C373.442 285.965 373.915 286.37 378.58 285.018C387.368 282.451 391.897 277.248 392.505 269.071C392.843 263.868 392.37 260.962 391.086 260.962C390.68 261.03 388.652 261.571 386.624 262.314Z" fill="#E8DAC4"/>
<path d="M440.568 268.801C436.647 269.95 431.239 274.68 429.076 278.869L427.453 281.978L429.143 283.397C436.309 289.276 447.26 290.83 454.764 286.978C458.549 285.086 464.769 279.613 466.459 276.639L467.675 274.612L462.741 272.247C454.291 268.058 446.719 266.841 440.568 268.801Z" fill="#E8DAC4"/>
<path d="M475.112 307.453C470.651 311.913 469.299 315.291 469.907 320.562C470.313 323.941 472.949 329.955 474.166 330.36C475.45 330.766 481.872 323.873 483.562 320.292C485.388 316.372 485.658 313.669 484.509 310.223C483.562 307.52 480.723 303.533 479.777 303.533C479.371 303.533 477.276 305.29 475.112 307.453Z" fill="#E8DAC4"/>
<path d="M485.928 329.144C482.818 330.157 478.424 332.658 478.086 333.604C477.072 336.239 484.508 345.632 489.984 348.537C495.392 351.443 503.639 351.308 510.669 348.2L513.711 346.848L511.278 342.929C505.667 334.077 498.907 329.211 491.741 328.806C489.51 328.671 486.874 328.806 485.928 329.144Z" fill="#E8DAC4"/>
<path d="M437.322 332.32C432.387 336.78 430.9 339.888 430.832 345.834C430.832 349.821 431.17 351.24 432.86 354.551C434.009 356.714 435.294 358.606 435.699 358.741C437.119 359.214 443.947 351.848 445.704 347.997C447.665 343.875 447.867 339.753 446.38 336.171C445.163 333.333 442.189 329.211 441.378 329.211C441.04 329.211 439.215 330.63 437.322 332.32Z" fill="#E8DAC4"/>
<path d="M468.959 335.834C465.24 338.199 462.604 341.239 461.59 344.483C460.508 347.794 461.049 354.619 462.672 357.795L463.956 360.295L467.404 357.998C473.623 353.808 476.462 349.281 476.462 343.537C476.462 340.293 474.164 334.55 472.744 334.144C472.339 334.009 470.649 334.82 468.959 335.834Z" fill="#E8DAC4"/>
<path d="M402.778 337.523C393.854 344.145 390.542 352.322 392.908 361.714C394.057 366.174 397.234 372.526 398.586 372.999C398.992 373.134 401.493 371.107 404.062 368.539C414.608 358.2 416.027 346.848 407.983 337.726L405.82 335.293L402.778 337.523Z" fill="#E8DAC4"/>
<path d="M313.884 378.405C307.192 386.581 304.082 394.555 304.082 403.407C304.082 412.597 306.516 419.625 312.397 427.531L315.236 431.382L316.656 429.558C317.467 428.544 319.495 425.368 321.185 422.53C331.122 405.637 330.784 390.23 320.103 379.351C318.211 377.459 316.453 375.837 316.25 375.837C316.047 375.837 314.966 376.986 313.884 378.405Z" fill="#E8DAC4"/>
<path d="M356.538 405.907C351.604 412.394 349.373 420.3 350.725 426.787C351.536 430.774 354.578 437.261 356.876 440.032L358.296 441.653L359.58 440.032C362.014 436.923 366.273 427.531 366.949 423.814C367.828 419.219 367.219 414.962 365.191 410.908C363.704 407.867 359.986 403.542 358.837 403.542C358.566 403.542 357.485 404.623 356.538 405.907Z" fill="#E8DAC4"/>
<path d="M526.486 407.799C523.647 408.745 518.712 413.611 518.036 416.178C517.563 418.273 518.374 419.152 522.971 421.246C530.475 424.625 537.1 423.274 543.454 417.057C545.617 414.895 547.442 412.867 547.442 412.529C547.442 412.124 545.279 410.84 542.643 409.624C537.235 407.124 530.61 406.38 526.486 407.799Z" fill="#E8DAC4"/>
<path d="M558.057 428.882C554.677 431.45 551.297 435.572 549.742 439.288C547.512 444.559 549.404 455.911 553.258 460.777L554.745 462.669L560.423 456.925C566.778 450.573 569.076 446.113 569.076 440.167C569.076 435.369 564.479 426.45 562.046 426.517C561.64 426.517 559.882 427.598 558.057 428.882Z" fill="#E8DAC4"/>
<path d="M569.752 460.236C567.656 460.912 561.708 463.952 560.085 465.169C558.868 466.115 558.868 466.25 560.423 469.493C564.479 477.737 569.887 483.481 576.377 486.522C583.61 489.833 594.697 489.292 604.093 485.17L607 483.887L605.513 481.386C599.699 471.723 592.939 464.628 586.652 461.723C583.745 460.371 581.717 459.966 577.188 459.831C574.011 459.763 570.698 459.898 569.752 460.236Z" fill="#E8DAC4"/>
<path d="M433.671 466.183C433.063 468.345 432.251 472.264 431.778 474.832C430.156 484.9 433.806 495.509 441.31 502.469C445.366 506.186 454.492 511.254 458.616 512.065L460.711 512.47L461.86 506.456C463.348 499.226 463.348 488.482 461.928 483.076C459.359 473.143 452.058 466.047 441.648 463.345C435.158 461.655 434.888 461.79 433.671 466.183Z" fill="#E8DAC4"/>
<path d="M548.391 468.345C543.726 471.048 538.994 476.454 537.575 480.711C536.02 485.441 536.561 492.739 538.927 497.807L540.617 501.591L543.388 500.037C547.918 497.469 554.069 491.185 555.895 487.198C558.396 481.86 558.261 476.657 555.421 471.048C554.205 468.683 552.92 466.723 552.515 466.588C552.177 466.453 550.284 467.264 548.391 468.345Z" fill="#E8DAC4"/>
<path d="M197.204 485.103C184.766 498.618 184.833 514.362 197.407 529.972L199.232 532.269L201.666 529.904C205.114 526.593 210.454 518.417 212.144 513.889C216.47 502.402 214.578 492.671 206.33 484.36C204.302 482.265 202.409 480.576 202.071 480.576C201.733 480.576 199.57 482.603 197.204 485.103Z" fill="#E8DAC4"/>
<path d="M503.775 484.495C501.274 484.765 500.801 485.779 500.801 491.185C500.801 501.726 505.195 509.97 513.374 514.768C516.89 516.862 524.326 519.092 527.638 519.092H529.869V515.173C529.801 509.497 528.179 501.456 526.286 497.199C522.365 488.684 513.307 483.549 503.775 484.495Z" fill="#E8DAC4"/>
<path d="M259.867 494.225C250.133 511.795 251.688 527.607 264.464 540.378C268.452 544.365 276.091 550.176 277.376 550.176C277.917 550.176 281.161 543.486 282.919 538.824C289.341 521.728 287.178 507.335 276.903 497.807C273.185 494.361 265.613 490.036 263.315 490.036C262.706 490.036 261.219 491.86 259.867 494.225Z" fill="#E8DAC4"/>
<path d="M388.312 494.834C384.188 499.699 383.107 504.362 384.797 509.497C385.878 512.605 390.069 518.417 391.286 518.417C392.368 518.417 396.559 510.849 397.37 507.47C398.52 502.875 397.303 498.753 393.855 495.307C392.435 493.888 391.016 492.739 390.678 492.739C390.34 492.739 389.258 493.685 388.312 494.834Z" fill="#E8DAC4"/>
<path d="M403.118 513.889C399.738 515.511 395.344 519.228 395.344 520.512C395.344 521.728 401.833 527.742 404.875 529.296C407.309 530.58 408.931 530.918 413.596 530.918C418.869 530.918 419.815 530.715 423.939 528.62C426.372 527.404 428.941 525.715 429.617 525.039C430.834 523.688 430.766 523.552 426.846 520.106C418.666 512.808 410.148 510.578 403.118 513.889Z" fill="#E8DAC4"/>
<path d="M387.773 524.363C382.839 529.837 381.96 536.999 385.475 543.013C388.247 547.743 388.99 548.081 391.289 545.378C398.184 537.27 398.792 529.431 392.979 523.62C391.965 522.606 390.883 521.795 390.613 521.795C390.342 521.795 389.058 522.944 387.773 524.363Z" fill="#E8DAC4"/>
<path d="M313.138 526.188C308.473 534.229 307.662 543.081 310.974 550.244C312.867 554.366 318.478 560.447 322.602 562.88L325.103 564.367L327.063 560.109C331.457 550.446 332.336 540.175 329.227 534.296C326.996 529.904 318.748 523.147 315.639 523.147C315.233 523.147 314.152 524.498 313.138 526.188Z" fill="#E8DAC4"/>
<path d="M458.075 558.69C457.196 559.569 457.467 565.988 458.616 569.705C460.644 576.597 468.959 582.611 476.598 582.611H479.369L478.896 578.287C477.95 569.029 474.772 562.88 469.567 560.245C466.66 558.758 458.954 557.677 458.075 558.69Z" fill="#E8DAC4"/>
</svg>
