<svg width="383" height="302" viewBox="0 0 383 302" fill="none" xmlns="http://www.w3.org/2000/svg">
<path d="M382.333 285.584C382.157 285.243 381.797 284.679 381.525 284.328C381.262 283.968 380.688 283.209 380.27 282.644C379.112 281.097 376.991 278.644 376.145 277.865C374.598 276.454 372.769 275.257 370.784 274.371C370.171 274.089 369.315 273.651 368.887 273.398C367.641 272.648 367.408 272.561 365.764 272.162C364.256 271.792 364.149 271.782 362.602 271.792C360.442 271.811 357.611 271.987 356.968 272.133C356.521 272.24 356.433 272.24 356.394 272.123C356.365 272.045 356.19 271.811 355.995 271.607C355.665 271.257 355.597 271.227 354.964 271.179L354.283 271.12L351.17 268.765C349.457 267.48 347.259 265.816 346.286 265.086C345.313 264.346 343.756 263.266 342.832 262.672C341.907 262.078 340.497 261.105 339.689 260.501C338.891 259.898 337.724 259.032 337.111 258.574C336.498 258.117 335.622 257.406 335.165 256.997C334.114 256.053 333.034 255.275 331.371 254.292C330.651 253.863 329.581 253.221 328.987 252.871C327.839 252.189 323.792 249.483 323.539 249.23C323.519 249.211 324.512 249.211 325.747 249.23C327.46 249.26 328.189 249.23 328.88 249.114C329.376 249.026 330.427 248.919 331.234 248.86C332.032 248.802 332.937 248.714 333.248 248.656C333.813 248.559 333.813 248.559 334.367 248.938C335.545 249.736 337.987 251.109 338.969 251.537C340.127 252.033 343.484 252.919 345.235 253.192C347.619 253.571 351.374 253.143 353.767 252.218C354.818 251.81 355.499 251.42 357.445 250.126C359.352 248.841 359.683 248.578 361.872 246.525C364.012 244.519 364.382 244.111 365.287 242.758C367.223 239.857 368.429 236.908 368.595 234.611C368.653 233.891 368.634 233.794 368.429 233.492C368.186 233.151 367.894 232.966 366.98 232.606C366.688 232.489 366.026 232.226 365.52 232.022C364.402 231.574 360.85 230.426 359.975 230.221C359.372 230.085 358.058 229.968 355.733 229.832C354.507 229.754 351.286 229.929 350.333 230.124C349.409 230.309 348.718 230.611 345.527 232.168C341.217 234.28 338.755 236.013 337.656 237.697C337.101 238.543 336.469 239.779 336.255 240.441C335.7 242.115 335.408 244.373 335.593 245.61L335.671 246.116L335.292 246.155C335.087 246.184 334.873 246.174 334.825 246.125C334.766 246.087 334.513 245.999 334.251 245.941C333.871 245.863 333.735 245.872 333.453 245.999C333.268 246.087 333.054 246.242 332.976 246.349C332.859 246.525 332.674 246.554 331.254 246.632C330.378 246.68 329.23 246.787 328.695 246.875C327.08 247.128 323.714 246.992 321.106 246.563C319.987 246.379 318.917 246.184 318.732 246.125C318.421 246.018 315.551 244.257 313.158 242.699C312.535 242.291 311.435 241.619 310.725 241.21C310.015 240.801 308.604 239.916 307.583 239.244C306.551 238.572 305.218 237.784 304.567 237.473C303.915 237.171 302.932 236.636 302.378 236.285C301.813 235.945 300.85 235.39 300.227 235.059C299.605 234.738 298.466 234.095 297.698 233.648C296.929 233.2 296.015 232.684 295.674 232.509C295.032 232.188 292.843 231.35 291.627 230.951C290.089 230.455 284.359 228.265 283.172 227.72C281.79 227.087 280.681 226.679 279.485 226.367C278.395 226.095 277.578 225.754 274.756 224.391C271.604 222.863 271.302 222.737 269.045 222.007C267.498 221.51 266.788 221.208 264.91 220.264C263.285 219.447 261.943 218.853 260.201 218.211C257.146 217.062 255.745 216.459 252.797 215.057C249.343 213.402 247.689 212.711 245.413 211.962C243.165 211.232 242.377 210.882 240.47 209.762C239.76 209.353 238.709 208.789 238.116 208.516C237.532 208.244 236.89 207.952 236.705 207.864L236.364 207.699L237.337 207.699C239.682 207.679 243.214 207.397 245.831 207.008C246.882 206.852 248.497 206.638 249.402 206.521C251.299 206.288 254.529 205.752 255.862 205.45C256.358 205.343 257.428 205.207 258.236 205.158C259.053 205.1 260.084 205.012 260.542 204.964C260.999 204.915 262.264 204.828 263.363 204.769C265.387 204.662 266.253 204.584 268.179 204.331C270.475 204.029 274.873 203.815 276.342 203.942C277.188 204.01 277.198 204.01 277.305 204.312C277.364 204.487 277.617 205.051 277.879 205.567C278.317 206.434 278.463 206.628 279.708 207.874C281.022 209.188 282.637 210.531 283.834 211.31C284.631 211.835 287.171 213.062 288.085 213.364C289.331 213.782 290.761 214.113 292.794 214.454C295.587 214.921 296.754 215.028 298.34 214.95C301.336 214.804 303.263 214.522 305.598 213.879C308.03 213.208 309.353 212.614 311.348 211.31C311.893 210.94 312.768 210.405 313.274 210.103C314.763 209.227 315.522 208.643 316.835 207.378C318.937 205.334 320.036 203.815 320.143 202.764C320.221 202.034 320.163 201.908 319.131 200.671C317.867 199.153 315.639 197.323 312.963 195.62C311.377 194.608 307.719 192.758 306.464 192.33C303.652 191.376 297.27 190.656 294.244 190.948C292.551 191.113 291.559 191.279 288.873 191.873C285.186 192.69 285.069 192.739 282.578 194.209C280.983 195.153 280.234 195.746 279.582 196.545C278.794 197.537 277.626 199.99 277.373 201.207L277.257 201.781L276.566 201.713C275.457 201.616 269.395 202.005 266.914 202.326C266.117 202.433 264.56 202.569 263.46 202.628C262.361 202.686 260.746 202.822 259.861 202.92C258.975 203.027 257.691 203.153 256.99 203.212C256.3 203.27 255.463 203.358 255.142 203.406C254.821 203.445 254.257 203.514 253.877 203.552L253.196 203.621L253.751 203.28C254.84 202.608 257.127 200.866 257.672 200.282C258.528 199.357 259.063 198.511 260.007 196.613C260.785 195.046 260.911 194.851 261.125 194.841C261.505 194.832 262.089 194.52 262.76 193.985C263.091 193.712 263.733 193.313 264.171 193.109C264.9 192.768 265.046 192.651 265.601 191.96C265.951 191.542 266.515 190.86 266.866 190.452C267.615 189.576 269.405 186.617 269.979 185.303C270.767 183.531 271.263 182.042 271.828 179.804C272.587 176.845 272.694 176.144 272.771 174.11C272.82 172.698 272.791 172.105 272.616 170.654C272.295 168.007 272.149 167.267 271.691 165.885C271.458 165.194 271.01 163.831 270.709 162.868C270.407 161.914 269.882 160.483 269.551 159.704C269.21 158.926 268.773 157.845 268.578 157.3C267.985 155.704 267.391 155.208 266.379 155.471C264.609 155.947 261.563 158.089 259.54 160.298C257.74 162.245 255.142 165.934 254.208 167.861C253.838 168.63 253.537 169.837 253.089 172.377C252.778 174.1 252.729 174.655 252.651 176.738C252.612 178.052 252.544 179.696 252.505 180.387C252.447 181.497 252.476 181.857 252.71 183.307C253.216 186.549 253.76 188.155 254.947 189.975C255.784 191.259 256.28 191.639 258.08 192.408C258.936 192.778 259.413 193.031 259.394 193.109C259.238 193.693 258.129 195.883 257.263 197.294C256.543 198.462 255.132 199.825 252.233 202.122C252.019 202.297 251.377 202.686 250.812 202.988C250.248 203.29 249.635 203.63 249.45 203.747C249.158 203.932 248.857 203.981 247.456 204.088C246.541 204.146 245.773 204.224 245.734 204.244C245.529 204.37 241.764 204.477 240.499 204.39C239.721 204.331 238.32 204.244 237.386 204.185C236.452 204.127 235.002 203.99 234.175 203.893C232.327 203.66 230.313 203.504 229.262 203.504L228.474 203.504L227.365 202.715C225.779 201.606 225.156 201.246 223.415 200.487C221.819 199.786 221.44 199.572 218.609 197.79C211.633 193.42 207.877 191.094 205.396 189.653C203.188 188.359 201.816 187.502 197.953 184.972C196.825 184.232 195.132 183.161 194.198 182.607C193.264 182.052 191.688 181.079 190.695 180.446C188.175 178.859 185.519 177.273 184.021 176.494C182.387 175.628 181.423 175.044 179.156 173.526C178.145 172.854 176.452 171.774 175.411 171.141C174.37 170.508 172.774 169.486 171.86 168.854C170.955 168.231 169.729 167.394 169.135 167.004C168.552 166.615 167.141 165.642 166.012 164.853C164.884 164.065 163.395 163.062 162.704 162.624C160.165 161.009 158.307 159.607 156.195 157.719C154.872 156.522 154.006 155.85 152.547 154.857C151.409 154.088 148.821 151.791 147.361 150.263C145.96 148.803 144.442 146.876 140.804 141.893C139.51 140.131 138.624 139.06 137.077 137.406C136.095 136.355 136.066 136.316 136.387 136.374C136.571 136.413 137.214 136.491 137.797 136.539C139.033 136.647 140.22 136.793 140.92 136.929C141.533 137.036 144.092 137.046 145.055 136.929C147.449 136.656 149.978 136.335 150.65 136.209C151.078 136.131 152.566 135.858 153.958 135.615C155.349 135.371 157.013 135.06 157.665 134.933C158.316 134.797 158.9 134.69 158.978 134.69C159.056 134.69 159.893 135.235 160.846 135.897C161.79 136.559 162.977 137.299 163.463 137.542C163.959 137.785 165.263 138.418 166.362 138.953C167.462 139.489 168.999 140.17 169.787 140.472C170.575 140.773 171.305 141.056 171.402 141.095C171.577 141.163 171.577 141.202 171.315 142.331C170.925 143.946 170.935 145.056 171.324 146.954C171.743 148.94 171.869 149.416 172.258 150.361C172.628 151.237 172.891 151.908 173.319 153.066C173.465 153.456 173.766 154.011 173.99 154.303C174.204 154.585 174.759 155.295 175.206 155.87C176.315 157.3 179.39 160.347 180.567 161.184C181.958 162.177 183.408 162.916 186.123 164.045C189.139 165.301 190.092 165.622 192.096 166.041L193.653 166.362L196.766 166.362C199.306 166.362 200.288 166.323 202.069 166.148C205.027 165.846 205.406 165.759 205.756 165.272C206.252 164.571 206.428 161.515 206.068 159.948C205.97 159.52 205.727 158.488 205.542 157.651C204.939 154.994 204.423 153.602 203.071 150.945C202.4 149.631 201.68 148.258 201.466 147.898C200.707 146.594 198.148 143.401 196.99 142.321C195.356 140.803 193.488 139.43 192.233 138.836C191.26 138.369 188.934 137.659 187.31 137.328C184.089 136.666 180.81 136.909 178.699 137.961C178.32 138.155 177.23 138.944 175.664 140.16C175.469 140.316 175.381 140.287 173.805 139.693C172.891 139.343 171.324 138.827 170.303 138.525C168.921 138.126 168.075 137.815 166.946 137.269C166.119 136.88 165.068 136.393 164.611 136.199C163.599 135.761 163.337 135.605 162.237 134.797L161.371 134.155L161.702 134.087C162.033 134.019 167.637 133.182 168.795 133.036C169.145 132.987 170.673 132.938 172.2 132.928C174.671 132.909 175.119 132.928 176.286 133.113C177.006 133.24 178.261 133.435 179.059 133.571C180.499 133.804 182.484 134.019 184.848 134.204C185.519 134.262 187.027 134.418 188.205 134.564C190.073 134.788 190.89 134.826 194.675 134.895C197.058 134.933 200.035 135.002 201.291 135.041C202.799 135.079 203.976 135.06 204.744 134.992C207.313 134.739 207.887 134.7 211.068 134.583L214.376 134.466L215.447 135.148C216.04 135.517 217.217 136.257 218.073 136.783C218.93 137.308 219.747 137.824 219.903 137.922L220.165 138.116L219.64 139.099C218.735 140.793 218.492 142.214 218.686 144.764C218.803 146.175 219.037 147.081 219.786 148.969C220.408 150.546 221.488 152.356 222.471 153.465C223.211 154.312 225.03 155.899 225.73 156.317C228.328 157.855 233.183 159.412 237.094 159.938C240.11 160.347 244.751 160.142 247.553 159.461C248.925 159.13 251.309 158.352 251.532 158.157C251.902 157.836 251.98 157.456 251.883 156.424C251.746 155.062 251.328 153.456 250.443 150.945C249.557 148.424 249.188 147.655 248.117 146.029C246.58 143.713 244.994 141.961 243.37 140.783C238.836 137.493 235.761 135.712 233.708 135.177C231.325 134.554 228.182 134.7 224.154 135.625C223.327 135.819 222.413 136.082 222.121 136.209C221.839 136.335 221.566 136.442 221.518 136.442C221.469 136.442 221.109 136.228 220.72 135.975C220.321 135.712 219.552 135.245 219.007 134.924C217.889 134.281 217.889 134.291 219.144 134.126C221.43 133.824 225.867 132.052 230.138 129.726C231.208 129.142 232.658 128.403 233.348 128.072C234.633 127.458 240.208 125.152 240.392 125.152C240.49 125.152 241.122 125.697 242.718 127.137C243.574 127.906 243.905 128.081 245.909 128.763C247.845 129.415 248.964 129.571 251.98 129.571L254.266 129.58L255.823 129.22C258.246 128.656 260.6 127.819 263.13 126.621C265.64 125.434 266.846 124.655 268.539 123.127C270.31 121.541 271.166 120.392 272.499 117.803C273.248 116.372 273.365 115.915 273.248 115.097C273.17 114.572 273.015 114.387 272.314 113.939C269.6 112.216 266.564 111.292 262.108 110.844C260.308 110.669 258.187 110.785 255.969 111.194C254.422 111.477 250.608 112.489 249.625 112.888C246.502 114.143 244.294 116.431 242.251 120.558L241.521 122.027L241.171 122.037C240.529 122.037 239.721 122.806 239.721 123.409C239.721 123.653 239.672 123.701 239.312 123.799C237.454 124.285 232.531 126.164 230.702 127.079C228.328 128.266 225.75 129.308 223.765 129.862C221.401 130.524 220.049 130.768 218.015 130.894C217.139 130.943 215.962 131.05 215.398 131.128C214.308 131.284 204.19 131.41 203.139 131.293C202.623 131.235 202.614 131.225 202.847 131.099C203.314 130.846 204.56 129.872 205.912 128.704C207.157 127.624 207.293 127.536 207.566 127.595C208.043 127.702 211.107 127.692 212.246 127.575C213.939 127.41 215.524 126.933 217.285 126.067C219.338 125.035 223.463 121.881 225.701 119.613C227.384 117.9 229.301 114.825 230.002 112.713C230.167 112.197 230.585 111.087 230.926 110.25C231.266 109.413 231.656 108.352 231.782 107.895C232.59 105.121 232.21 101.821 230.595 97.4996C230.002 95.9229 229.865 95.6406 228.883 93.7816C228.104 92.3216 227.705 91.8349 227.2 91.7084C226.869 91.6208 225.215 91.9517 223.425 92.4579C222.52 92.7207 221.557 93.0905 220.554 93.5577C219.727 93.9568 218.706 94.4337 218.297 94.6186C217.889 94.8133 216.955 95.3291 216.225 95.7769C214.795 96.6529 212.995 98.1712 211.73 99.5728C210.961 100.42 209.171 102.775 208.062 104.4C206.505 106.668 204.501 110.493 203.878 112.382C203.285 114.163 203.227 114.659 203.285 117.355C203.353 120.139 203.421 120.733 203.83 122.018C204.209 123.195 204.696 124.149 205.241 124.753L205.659 125.22L205.153 125.706C204.443 126.397 201.796 128.549 200.765 129.269C200.298 129.6 199.617 130.096 199.257 130.359L198.615 130.846L196.572 130.914C195.453 130.943 194.052 131.001 193.458 131.04C192.554 131.099 192.126 131.069 190.686 130.855C189.752 130.709 188.419 130.554 187.718 130.495C187.027 130.446 186.084 130.339 185.626 130.262C185.169 130.174 183.992 130.028 183 129.921C181.978 129.814 179.964 129.493 178.329 129.171L175.459 128.617L172.151 128.578C169.388 128.549 168.717 128.568 168.114 128.704C166.732 128.996 165.535 129.23 164.563 129.386C164.027 129.463 163.152 129.648 162.617 129.794C161.138 130.174 158.628 130.777 158.599 130.748C158.54 130.7 159.425 128.325 159.893 127.264C160.175 126.641 160.749 125.512 161.177 124.762L161.936 123.4L162.471 123.468C162.763 123.507 163.687 123.536 164.514 123.526C167.151 123.507 169.359 122.913 172.443 121.365C174.467 120.363 176.053 119.331 178.232 117.638C180.013 116.246 180.849 115.457 182.017 114.056C184.118 111.535 185.549 109.53 186.249 108.148C186.969 106.698 187.728 104.449 188.01 102.911C188.098 102.434 188.263 101.578 188.37 101.013C188.701 99.3392 188.72 98.911 188.623 96.8767C188.535 94.9301 188.234 91.4845 188.049 90.1122C187.913 89.1778 187.261 86.3551 186.988 85.5376C186.736 84.7784 186.288 84.136 185.879 83.9413C185.286 83.6591 183.145 83.2989 181.579 83.2113C179.293 83.0848 177.502 83.2795 174.973 83.9219C172.307 84.6129 170.566 85.411 168.454 86.9197C167.228 87.7956 166.713 88.2337 165.886 89.1291C165.321 89.7423 164.329 90.7837 163.677 91.4359C162.393 92.7304 161.955 93.2852 160.418 95.5433C157.606 99.6604 157.227 100.507 156.546 104.177C156.205 106.026 156.137 106.659 156.137 108.411C156.137 111.019 156.516 113.141 157.412 115.477C157.635 116.061 158.024 117.112 158.287 117.803C158.89 119.467 159.007 119.73 159.357 120.246C159.571 120.558 159.63 120.733 159.562 120.85C159.348 121.278 159.357 121.813 159.591 122.271L159.824 122.728L159.085 123.964C157.888 125.989 156.653 128.821 156.195 130.602C156.108 130.953 156.02 131.245 156.011 131.254C155.991 131.284 153.014 131.722 151.905 131.868C151.525 131.916 150.922 132.004 150.552 132.062C150.192 132.121 149.142 132.208 148.227 132.257C147.313 132.306 146.038 132.422 145.396 132.5C144.082 132.685 143.314 132.646 142.146 132.344C141.679 132.218 140.959 132.13 140.191 132.111C139.519 132.082 138.624 132.043 138.196 132.014C136.883 131.926 133.945 131.108 132.31 130.388C131.658 130.096 130.89 129.843 130.549 129.804C130.277 129.765 130.209 129.697 127.64 126.66C126.862 125.755 125.704 124.441 125.052 123.74C124.41 123.049 123.213 121.618 122.386 120.577C121.569 119.536 120.46 118.183 119.915 117.569C119.37 116.966 118.65 116.129 118.31 115.72C117.415 114.65 117.064 114.27 115.537 112.693C114.778 111.914 113.474 110.493 112.647 109.53C110.448 106.999 107.471 104.108 104.523 101.646C103.891 101.111 102.315 99.7091 101.031 98.5314C98.0339 95.7769 97.0318 94.8814 95.4848 93.5674C93.432 91.8252 92.4007 90.8908 90.1337 88.7106C87.2441 85.9269 87.176 85.8685 85.9015 84.9536C84.3837 83.8634 83.8194 83.3962 81.0953 80.9727C76.4252 76.8263 74.6545 75.3372 73.3216 74.4515C71.8233 73.4489 70.3444 72.1642 67.9024 69.7406C66.5403 68.3877 64.3901 66.334 63.135 65.1757C60.8292 63.0539 53.3571 55.5983 51.6448 53.71C51.1291 53.1455 50.1076 51.9678 49.3584 51.0821C48.619 50.1963 47.6753 49.1257 47.2763 48.6974C46.8677 48.2692 46.4104 47.763 46.2645 47.5781C45.4667 46.5951 42.2171 43.2371 41.5458 42.7018C41.3026 42.5071 41.1469 42.3319 41.2053 42.3027C41.2539 42.2735 42.042 42.439 42.9468 42.6628C45.2916 43.2468 48.4341 43.9866 51.6545 44.7068C54.1744 45.2713 54.6511 45.3395 56.9083 45.5439C58.3677 45.6704 60.6152 45.7775 62.3664 45.8164L65.3436 45.8748L65.7133 46.3128C67.0365 47.909 68.9434 49.6805 70.3055 50.5759C71.3757 51.2767 71.4049 51.3059 71.366 51.6076C71.3368 51.7731 71.2687 52.2598 71.2103 52.688C71.152 53.1163 71.0839 53.5738 71.0644 53.71C71.0157 54.0604 71.2006 56.0363 71.3271 56.4353C71.5217 57.0777 72.5238 58.6058 73.4578 59.6862C75.1409 61.6426 76.9214 63.1804 79.0132 64.4749C80.3947 65.3314 82.6617 66.5773 83.4206 66.8888C83.8 67.0445 84.6951 67.4436 85.415 67.7842C86.8063 68.4266 88.7716 69.0787 90.0754 69.3221C93.0914 69.8963 96.448 69.6725 99.1917 68.7089C100.126 68.3779 100.466 68.0957 100.641 67.5117C100.933 66.5286 100.933 66.2561 100.593 64.8351C100.174 63.015 99.9019 62.2752 99.0847 60.6692C98.0631 58.6448 97.5377 57.8077 96.448 56.4451C95.3973 55.1311 94.6092 54.3427 92.7606 52.7562C91.7001 51.8412 91.4472 51.6758 89.9878 50.9653C87.2831 49.6513 85.3372 49.0868 82.3503 48.7461C81.8152 48.678 80.8131 48.5417 80.1126 48.4346C78.6921 48.2205 77.9722 48.2497 76.4641 48.5709C75.462 48.785 74.5669 49.1452 73.9151 49.6123C73.5454 49.8654 73.4383 49.8946 73.0394 49.8459C72.6016 49.7973 72.5238 49.7291 71.3855 48.5612C70.7239 47.8896 69.9747 47.0525 69.712 46.7119L69.2256 46.0889L73.3605 46.1571C77.0771 46.2155 77.7192 46.2057 79.8596 46.0208C81.1731 45.904 82.2628 45.7969 82.3017 45.7775C82.4476 45.6801 85.9112 45.2324 87.5652 45.0864C89.0441 44.9599 89.5402 44.9501 90.5618 45.0475C91.3596 45.1253 92.2255 45.1448 93.0525 45.0864C93.7433 45.0475 95.4751 45.0086 96.8956 44.9988C98.6955 44.9891 99.8825 44.9307 100.836 44.8042C101.838 44.6776 103.006 44.629 105.263 44.6192L108.327 44.5998L108.619 44.9891C108.999 45.5049 110.857 46.8968 111.733 47.3348C112.56 47.7436 114.399 48.2789 115.751 48.5028C116.549 48.639 117.142 48.6585 118.718 48.6196C120.985 48.5709 121.89 48.386 123.846 47.617C126.609 46.5172 127.932 45.6996 130.267 43.6459C130.899 43.0911 131.94 42.2346 132.592 41.7479C134.674 40.1517 138.459 36.5601 139.091 35.5674C139.549 34.8471 139.374 34.195 138.576 33.6402C137.505 32.8907 136.104 32.3749 132.115 31.2653C131.094 30.9733 128.146 30.6521 125.928 30.5742C122.591 30.4574 119.176 31.0414 116.228 32.2094C114.165 33.0367 113.212 33.6888 111.236 35.655C109.767 37.1247 109.145 37.9228 108.483 39.2076C107.909 40.3172 107.637 41.1737 107.539 42.1275L107.471 42.8283L105.613 42.7504C104.591 42.7018 102.441 42.6726 100.836 42.6921C98.9971 42.7115 97.0902 42.6726 95.6308 42.5753C92.3131 42.3611 89.083 42.3027 87.4582 42.4195C85.1815 42.585 82.9925 42.8089 82.1557 42.9548C81.3871 43.1008 78.1668 43.5194 76.9506 43.6362C76.6003 43.6654 75.4231 43.6264 74.3334 43.5388C73.2437 43.461 71.5217 43.3928 70.5098 43.3928C68.7975 43.3928 67.3673 43.276 67.2019 43.1106C67.1532 43.0716 67.3381 42.877 67.6008 42.6823C67.8635 42.4779 68.4083 41.9718 68.8169 41.5435C69.2256 41.1153 69.605 40.7649 69.6536 40.7649C69.712 40.7649 70.0234 40.9011 70.3542 41.0666C71.1617 41.4754 73.0881 42.0302 73.6913 42.0302C73.954 42.0302 74.8393 41.9426 75.6566 41.8355C78.0403 41.5241 79.3829 40.979 81.7568 39.3633C83.2065 38.39 84.4129 37.2415 85.8626 35.47C88.0322 32.8129 90.6689 28.6081 91.6418 26.2624C92.1282 25.0847 92.7606 22.7682 93.1985 20.5296L93.6071 18.4369L93.5584 16.101C93.5001 13.0253 93.3444 12.4705 92.4396 12.0812C92.0018 11.8962 90.844 12.0909 88.5965 12.7333C81.679 14.6897 76.9895 17.1327 73.7886 20.4322C72.6211 21.6392 70.6655 23.9946 70.0039 24.9971C67.8635 28.2188 67.3381 29.0948 66.9976 30.0194C66.443 31.5475 66.336 32.1023 66.336 33.3385C66.3457 34.6038 66.4235 35.1586 66.8516 36.7743C67.1921 38.0883 67.3867 38.4873 67.8927 38.9837C68.1651 39.2562 68.2818 39.4606 68.3305 39.7624C68.3888 40.1517 68.3791 40.1712 67.8246 40.6383C67.1046 41.2613 65.9079 42.1373 65.2852 42.5071C64.8085 42.7894 64.7598 42.7991 64.1372 42.7212C61.6659 42.4001 59.6812 42.0691 58.4455 41.7771C57.6575 41.5922 56.4316 41.3586 55.7213 41.2515C55.0111 41.1347 53.7463 40.9206 52.9193 40.7649C52.0923 40.6091 50.4967 40.3171 49.3681 40.1322C46.0894 39.5774 41.8961 38.7404 40.281 38.3218C39.454 38.1174 38.5492 37.9131 38.2671 37.8839C37.9946 37.8449 37.7222 37.7963 37.6736 37.7573C37.6249 37.7281 37.3914 37.4361 37.1579 37.1149C36.9244 36.7937 36.0585 35.6842 35.2315 34.6524C33.4024 32.3554 33.1105 31.9369 32.0987 30.1557C31.2425 28.6568 29.8902 26.6226 28.0221 24.0433C27.3995 23.1673 26.4655 21.7852 25.9498 20.9773C25.4342 20.1597 24.4612 18.6316 23.7802 17.561C23.0991 16.5 22.0678 14.787 21.4938 13.765C19.5674 10.3584 19.2658 9.88146 17.2324 6.98097C16.1233 5.39446 14.3039 2.68863 13.1753 0.96586C12.0564 -0.756914 10.1787 -3.53087 9.02091 -5.20498C4.92489 -11.1033 4.46761 -11.7652 2.91093 -14.2276C-0.62079 -19.7756 -4.77518 -25.9075 -7.64531 -29.8008C-8.45284 -30.9006 -9.78575 -32.7791 -10.6127 -33.986C-11.43 -35.1929 -12.2764 -36.3999 -12.5002 -36.6724C-15.5649 -40.4683 -16.9562 -41.9575 -18.9507 -43.5537C-20.3712 -44.6925 -22.1224 -45.8897 -22.9202 -46.2693C-23.4456 -46.5126 -23.6013 -46.5418 -24.5548 -46.5418C-25.732 -46.5418 -26.1406 -46.3958 -26.9287 -45.7145C-27.5806 -45.1597 -28.1643 -43.8555 -28.4173 -42.4344C-28.6605 -41.0426 -28.7189 -40.2153 -28.6021 -39.7967C-28.4076 -39.1154 -27.7654 -38.4146 -22.7159 -33.3631C-20.9647 -31.6111 -19.8847 -30.4334 -18.9118 -29.2168C-18.1626 -28.2824 -16.9659 -26.8321 -16.2654 -26.0048C-14.7477 -24.2334 -13.4829 -22.5787 -11.683 -20.0189C-10.963 -18.9969 -9.69819 -17.2449 -8.86147 -16.1256C-7.02264 -13.6534 -6.33186 -12.6801 -4.77518 -10.3344C-4.12332 -9.34159 -3.14067 -7.94001 -2.5861 -7.21975C-2.04126 -6.4995 -0.406748 -4.1538 1.06237 -2.0125C3.95196 2.22144 7.62962 7.5455 8.35932 8.54802C8.61228 8.89841 9.44899 10.0567 10.2273 11.1273C11.0057 12.198 12.4651 14.2614 13.4672 15.7019C14.479 17.1522 16.0941 19.4687 17.067 20.8605C18.0399 22.2524 19.3339 24.1114 19.9371 24.9971C21.8246 27.7321 27.7303 35.509 30.1334 38.4192C30.8242 39.2562 31.943 40.687 32.6338 41.5922C34.2294 43.714 34.9396 44.5706 37.0606 46.8968C39.4832 49.5637 42.1296 52.542 42.8885 53.4667C43.8322 54.6055 45.097 55.9 45.817 56.4645C46.1672 56.737 46.9553 57.36 47.5682 57.8369C49.553 59.4039 50.3216 60.0561 51.5086 61.2046C52.1507 61.8275 54.0771 63.5405 55.7895 65.0005C60.2065 68.7673 60.7319 69.2637 65.9079 74.3444C67.1921 75.6 69.138 77.4882 70.2374 78.5297C75.0923 83.1529 75.9387 83.8732 79.8013 86.725C81.9222 88.292 82.1947 88.5256 82.9049 89.4016C84.5297 91.3872 85.9502 93.4409 87.7403 96.3706C88.0809 96.9351 88.5673 97.6748 88.83 98.0155C89.083 98.3659 89.3846 98.8623 89.4916 99.1446C89.5986 99.4171 90.0851 100.361 90.5618 101.227C91.5445 103.028 93.0039 105.987 93.0039 106.172C93.0039 106.464 94.2298 110.824 94.7941 112.557L95.407 114.426L94.6676 116.898C94.2589 118.261 93.8308 119.526 93.7141 119.721C93.6071 119.905 93.4806 120.256 93.4417 120.489C93.3736 120.947 93.3152 121.151 92.7606 122.913C92.1477 124.889 92.1574 124.869 91.8558 124.753C91.7099 124.694 90.8732 124.587 89.9878 124.509C89.1024 124.441 88.1684 124.334 87.9155 124.276C86.6507 124.013 83.4205 124.305 81.8152 124.821C80.8326 125.142 78.157 126.641 76.2695 127.916C74.2167 129.308 72.2222 131.566 69.4299 135.673C66.4527 140.053 64.1858 145.095 62.6972 150.653C61.6075 154.702 61.2865 156.882 61.2184 160.503C61.16 163.744 61.1795 163.968 61.6465 164.445L61.9967 164.795L62.7361 164.737C63.8161 164.649 67.017 164.114 68.1456 163.831C71.4146 163.004 76.3571 161.466 78.1181 160.726C84.7048 157.952 88.3533 155.14 91.9628 150.059C94.0352 147.129 95.0859 144.822 95.5432 142.194C95.8253 140.53 95.8837 137.99 95.6891 135.663C95.6016 134.622 95.5043 133.415 95.4751 132.987C95.3583 131.459 95.0275 130.31 94.473 129.493C94.1227 128.987 93.5584 128.373 93.2179 128.149L92.9941 128.003L93.1887 127.673C93.286 127.488 93.4028 127.127 93.4417 126.874C93.4709 126.621 93.7919 125.697 94.1325 124.83C95.2027 122.183 95.6113 121.034 95.7183 120.48C95.8545 119.691 96.4675 117.618 96.5356 117.715C96.6621 117.939 97.5766 120.324 97.8004 121.025C97.9366 121.463 98.1701 122.426 98.3063 123.166C98.6079 124.762 98.7733 125.444 99.4738 127.974C99.7657 129.016 100.272 130.884 100.593 132.111C101.176 134.262 101.877 136.549 103.511 141.552C103.94 142.837 104.484 144.589 104.728 145.445C104.981 146.302 105.457 147.752 105.788 148.657C106.635 150.915 106.771 151.383 107.063 152.872C107.209 153.582 107.617 155.188 107.977 156.424C108.347 157.67 108.678 158.945 108.707 159.266C108.746 159.588 108.931 160.464 109.106 161.213C110.04 165.038 110.75 168.951 110.575 169.233C110.546 169.282 110.234 169.34 109.894 169.379C107.899 169.584 105.049 170.742 104.085 171.735L103.784 172.046L103.22 171.589C101.595 170.284 99.1041 169.321 96.3118 168.893C94.6481 168.649 92.7898 168.863 89.4527 169.681C84.6075 170.859 82.3406 172.212 78.3127 176.319C74.5377 180.154 72.7184 182.48 71.4536 185.059C70.7336 186.539 69.4396 189.741 68.9239 191.337C67.8732 194.617 67.1921 199.328 67.1824 203.406C67.1824 206.317 67.3673 206.988 68.6126 208.468C69.4493 209.47 69.7412 209.597 71.6384 209.83C73.3702 210.045 73.8372 210.025 76.3085 209.577C79.5386 209.003 81.0369 208.575 84.3935 207.28C86.5047 206.463 87.3804 206.064 88.7814 205.256C90.2505 204.419 93.5584 202.209 94.6092 201.372C95.9713 200.282 97.8685 198.52 99.1236 197.177C102.461 193.625 102.704 193.216 104.338 188.661C105.73 184.777 105.846 184.232 105.846 181.555C105.846 178.421 105.584 176.601 104.874 174.752L104.582 173.993L105.039 173.487C105.837 172.62 107.413 171.959 109.446 171.628C110.011 171.54 110.546 171.443 110.643 171.423C110.789 171.375 110.808 171.462 110.808 172.328C110.808 173.818 110.984 175.287 111.353 176.981C111.577 177.974 111.733 178.986 111.781 179.755C111.83 180.543 111.976 181.497 112.2 182.48C112.394 183.307 112.638 184.641 112.754 185.449C113.075 187.746 113.698 189.984 114.457 191.639C115.128 193.089 115.858 194.501 116.549 195.669C116.763 196.048 117.094 196.817 117.278 197.391C117.492 198.063 118.144 199.523 119.078 201.431C120.625 204.574 121.861 206.755 122.795 207.981C123.301 208.653 123.33 208.721 123.155 208.799C122.766 208.984 121.501 212.011 120.742 214.59C120.44 215.612 119.866 219.32 119.857 220.352C119.857 220.478 119.711 220.517 119.156 220.576C118.767 220.605 118.076 220.761 117.619 220.916C117.162 221.082 116.354 221.335 115.819 221.5C114.953 221.763 114.642 221.929 113.095 222.951C111.022 224.323 110.341 224.985 109.154 226.786C107.88 228.713 107.131 230.377 106.197 233.424C105.486 235.701 105.185 236.986 104.757 239.682C104.348 242.164 104.348 242.222 104.338 244.773L104.338 247.352L104.786 249.104C105.039 250.067 105.36 251.401 105.506 252.072C105.876 253.795 106.177 254.671 106.615 255.362C107.121 256.131 107.637 256.482 108.357 256.53C108.843 256.569 109.018 256.52 109.738 256.19C110.954 255.615 112.472 254.661 114.506 253.163C116.626 251.586 117.385 250.856 118.864 248.899C122.26 244.432 124.342 239.964 125.11 235.477C125.286 234.446 125.597 230.552 125.597 229.394C125.597 228.148 125.5 227.642 124.906 225.812C124.429 224.352 124.303 224.08 123.525 222.922C122.766 221.792 122.153 221.14 121.637 220.907C121.248 220.732 121.219 220.702 121.219 220.332C121.219 220.118 121.326 219.427 121.452 218.804C121.579 218.181 121.734 217.335 121.802 216.936C121.997 215.699 122.367 214.619 123.223 212.848C123.67 211.913 124.099 210.911 124.167 210.629L124.293 210.113L125.334 211.67C125.908 212.536 126.755 213.753 127.222 214.386C130.5 218.824 133.02 222.454 133.769 223.807C134.139 224.489 134.149 224.528 134.256 225.997C134.324 226.825 134.431 227.827 134.519 228.226C134.596 228.625 134.723 229.326 134.791 229.783C134.927 230.601 135.842 233.054 136.513 234.397C137.505 236.373 139.101 238.718 140.726 240.587C141.767 241.775 144.394 244.354 145.396 245.162C146.573 246.125 149.365 247.946 150.455 248.471C152.08 249.26 154.318 249.834 155.796 249.834C156.176 249.834 156.808 249.921 157.207 250.028C158.53 250.379 159.863 250.262 162.461 249.581C164.923 248.929 165.623 248.568 165.925 247.839C166.129 247.323 165.886 243.955 165.487 241.901C164.825 238.495 163.152 234.416 161.508 232.207C161.089 231.652 160.418 230.708 160 230.105C159.066 228.761 158.132 227.749 156.409 226.221C154.853 224.829 153.88 224.08 152.664 223.33C151.72 222.737 149.258 221.481 148.256 221.072C144.52 219.544 139.373 220.079 136.435 222.299L135.774 222.795L135.55 222.522C135.423 222.367 134.917 221.646 134.431 220.926C133.935 220.206 133.069 218.989 132.495 218.24C131.921 217.481 131.065 216.274 130.578 215.563C130.102 214.843 129.255 213.626 128.701 212.848C128.146 212.069 127.329 210.823 126.881 210.074C126.443 209.324 125.772 208.293 125.402 207.786C123.573 205.275 122.571 203.562 121.569 201.236C121.267 200.555 120.732 199.416 120.363 198.705C119.73 197.489 119.458 196.759 118.835 194.695C118.689 194.218 118.271 193.05 117.911 192.116C117.385 190.792 117.191 190.14 117.035 189.245C116.928 188.602 116.704 187.532 116.549 186.86C116.393 186.188 116.198 185.225 116.111 184.719C115.916 183.599 115.683 182.646 115.245 181.244C115.06 180.67 114.866 179.784 114.807 179.297C114.69 178.373 114.506 177.399 114.068 175.521C113.854 174.567 113.824 174.236 113.824 172.455C113.824 171.355 113.756 169.301 113.679 167.88C113.61 166.469 113.562 165.291 113.572 165.272C113.591 165.262 114.029 165.613 114.544 166.06C115.06 166.508 115.848 167.082 116.286 167.345C117.551 168.075 117.794 168.25 117.784 168.386C117.745 168.805 117.969 170.382 118.154 171.044C118.28 171.472 118.495 172.26 118.64 172.796C118.786 173.321 119.01 173.983 119.146 174.246C119.526 174.995 121.053 177.263 121.627 177.925C122.289 178.674 123.651 179.823 124.77 180.563C127.29 182.217 133.03 184.534 137.233 185.585C140.162 186.315 141.563 186.461 143.791 186.286C146.777 186.042 148.86 185.566 150.786 184.68C151.409 184.388 152.284 184.057 152.742 183.94C154.24 183.541 154.999 183.035 155.32 182.227C155.466 181.857 155.466 181.77 155.32 181.156C154.921 179.414 153.101 175.316 151.642 172.844C150.854 171.511 149.842 170.061 149.239 169.389C148.042 168.085 145.921 166.245 143.927 164.805C142.38 163.685 137.583 161.476 135.423 160.882C133.565 160.376 130.345 160.172 127.582 160.376C124.624 160.6 123.67 160.921 121.121 162.605C119.244 163.831 118.806 164.328 118.592 165.467C118.533 165.739 118.475 165.982 118.456 166.002C118.339 166.128 116.636 164.931 115.673 164.045C115.06 163.481 114.321 162.877 114.039 162.702C113.017 162.07 113.017 162.06 112.579 160.288C112.355 159.403 112.132 158.42 112.063 158.098C112.005 157.777 111.723 156.746 111.441 155.801C111.159 154.857 110.74 153.242 110.517 152.21C110.283 151.1 109.904 149.747 109.602 148.862C109.31 148.054 108.901 146.886 108.687 146.273C108.133 144.706 106.635 139.858 106.041 137.707C105.769 136.715 105.389 135.401 105.204 134.778C105.019 134.155 104.728 132.909 104.543 132.004C104.163 130.125 103.93 129.249 103.122 126.699C102.383 124.363 102.13 123.439 101.809 121.94C101.507 120.499 101.283 119.818 100.447 117.715C99.9506 116.47 99.7462 115.769 99.4252 114.25C99.2014 113.209 98.8706 111.7 98.6858 110.912C98.5009 110.124 98.2382 108.761 98.102 107.895C97.7226 105.393 97.3723 104.118 96.7399 102.814C96.4286 102.201 96.2145 101.665 96.2437 101.627C96.2826 101.597 97.2847 102.551 98.4814 103.758C99.6684 104.965 101.322 106.542 102.149 107.262C104.085 108.946 108.444 113.287 110.565 115.652C113.007 118.377 114.068 119.497 115.187 120.548C115.741 121.073 117.317 122.699 118.679 124.169C122.153 127.887 122.503 128.266 124.313 130.408C126.093 132.5 126.648 133.133 128.671 135.381C129.43 136.218 130.578 137.523 131.23 138.282C131.882 139.031 132.991 140.277 133.692 141.036C135.287 142.778 135.744 143.343 137.418 145.64C141.835 151.694 143.236 153.358 146.272 156.093C148.334 157.952 148.48 158.069 149.871 159.023C150.582 159.5 151.574 160.259 152.08 160.707C152.596 161.145 153.481 161.924 154.065 162.43C155.524 163.695 156.954 164.737 160.457 167.082C162.101 168.192 164.971 170.119 166.829 171.365C168.688 172.611 171.13 174.187 172.249 174.859C173.377 175.531 174.866 176.465 175.557 176.932C178.096 178.626 180.081 179.862 181.647 180.709C183.408 181.663 185.996 183.191 188.711 184.884C189.683 185.488 191.026 186.296 191.678 186.685C192.34 187.064 193.4 187.707 194.042 188.106C195.55 189.05 199.384 191.386 200.755 192.194C201.349 192.535 202.721 193.294 203.82 193.868C205.785 194.89 206.963 195.591 210.922 198.053C212.022 198.735 214.075 200.01 215.495 200.876C216.916 201.752 218.404 202.667 218.803 202.92C219.212 203.163 220.194 203.708 220.992 204.127C221.926 204.604 223.104 205.334 224.252 206.142C225.244 206.842 226.402 207.621 226.83 207.874C227.258 208.127 227.851 208.497 228.143 208.682C228.98 209.217 232.268 210.716 234.059 211.378C235.255 211.826 236.51 212.4 238.748 213.519C240.091 214.191 241.414 214.765 242.445 215.125C243.331 215.437 244.557 215.875 245.169 216.089C246.541 216.575 248.74 217.52 251.883 218.98L254.276 220.089L254.295 220.878C254.325 222.318 255.531 226.523 256.455 228.421C256.728 228.976 257.127 229.842 257.35 230.358C258.148 232.246 259.559 235.039 260.551 236.694C261.116 237.628 261.806 238.835 262.089 239.371C262.711 240.539 262.993 240.918 264.823 243.118C265.611 244.052 266.788 245.503 267.44 246.33C269.707 249.191 270.514 250.174 271.536 251.245C272.1 251.829 272.839 252.637 273.18 253.026C273.735 253.659 273.783 253.756 273.657 253.902C273.501 254.087 272.655 255.44 272.032 256.511C271.516 257.387 271.049 258.487 270.621 259.84C270.086 261.533 270.047 262 270.164 264.774C270.31 268.463 270.553 269.446 272.509 274.381C274.143 278.498 275.262 280.532 277.597 283.666C280.477 287.53 282.141 289.292 285.935 292.455C289.272 295.239 291.296 296.582 294.73 298.315C296.52 299.23 297.182 299.493 298.525 299.823C299.07 299.96 300.111 300.261 300.84 300.505C301.57 300.738 302.261 300.933 302.368 300.933C302.485 300.933 302.572 301.001 302.572 301.079C302.572 301.186 302.689 301.225 303.059 301.225C303.409 301.225 303.545 301.186 303.545 301.089C303.545 301.021 303.691 300.933 303.866 300.894C304.246 300.816 304.956 300.339 305.325 299.911C305.598 299.58 305.608 299.541 305.88 297.332C306.094 295.609 306.182 292.407 306.084 289.935C305.968 287.102 305.792 285.457 305.433 283.997C305.15 282.859 303.798 279.033 303.039 277.233C302.767 276.59 302.319 275.471 302.037 274.741C301.755 274.011 301.336 273.067 301.122 272.629C300.364 271.13 297.124 265.777 296.404 264.833C295.703 263.927 292.921 261.329 289.895 258.749C288.348 257.435 287.171 256.608 286.305 256.209C285.682 255.927 283.765 255.372 282.627 255.138C282.17 255.051 281.411 254.846 280.924 254.691C279.669 254.292 278.21 253.99 277.441 253.97C276.838 253.961 276.76 253.931 276.449 253.63C276.264 253.455 275.953 252.997 275.758 252.618C275.174 251.498 273.939 249.756 272.995 248.714C272.509 248.179 271.769 247.332 271.361 246.826C270.952 246.32 270.32 245.571 269.95 245.172C267.245 242.135 265.62 240.003 264.813 238.417C264.482 237.765 263.898 236.704 263.529 236.061C262.166 233.735 261.991 233.414 261.602 232.518C261.378 232.012 261.077 231.185 260.931 230.669C260.775 230.153 260.396 228.927 260.075 227.934C259.754 226.941 259.442 225.803 259.384 225.394C259.267 224.654 259.082 222.172 259.131 222.114C259.189 222.046 260.162 222.484 262.682 223.71C264.716 224.693 265.805 225.16 267.245 225.647C269.463 226.396 270.213 226.717 273.287 228.158C276.371 229.598 276.828 229.793 278.502 230.319C279.29 230.572 280.603 231.078 281.401 231.458C282.209 231.827 283.483 232.372 284.232 232.674C284.982 232.966 285.847 233.336 286.149 233.492C286.966 233.901 288.465 234.485 289.632 234.845C293.057 235.896 293.456 236.052 295.557 237.083C297.143 237.872 298.077 238.261 299.138 238.592C299.926 238.835 301.152 239.303 301.852 239.624C302.562 239.945 303.389 240.286 303.701 240.402C304.022 240.509 304.995 241.025 305.88 241.551C306.765 242.076 308.342 242.972 309.383 243.527C313.235 245.6 320.114 249.649 324.706 252.559C326.37 253.61 328.53 254.944 329.522 255.518C331.789 256.851 332.49 257.348 333.949 258.633C335.146 259.694 339.553 262.905 342.073 264.55C342.851 265.057 345.06 266.653 346.986 268.093C348.913 269.534 351.179 271.169 352.016 271.733C352.931 272.337 353.544 272.824 353.553 272.911C353.553 272.999 353.67 273.32 353.806 273.631C354.011 274.069 354.079 274.43 354.147 275.306C354.215 276.24 354.283 276.561 354.585 277.311C355.246 278.965 355.674 279.627 357.28 281.389C358.253 282.459 359.002 283.102 360.802 284.387C363.195 286.09 365.267 287.17 367.233 287.735C367.69 287.871 369.13 288.163 370.414 288.397C372.73 288.805 372.808 288.805 375.006 288.805C377.04 288.805 377.371 288.786 378.606 288.543C379.355 288.397 380.435 288.124 381 287.93C382.206 287.53 382.517 287.277 382.605 286.625C382.654 286.255 382.615 286.1 382.333 285.584Z" fill="#848D69"/>
</svg>
